<?xml version="1.0" encoding="UTF-8"?><svg id="Layer_2" xmlns="http://www.w3.org/2000/svg" viewBox="0 0 288.47 288.47"><defs><style>.cls-1{stroke-width:1.65px;}.cls-1,.cls-2,.cls-3,.cls-4,.cls-5,.cls-6{fill:#f68e1e;}.cls-1,.cls-3,.cls-7,.cls-4,.cls-8,.cls-5,.cls-6,.cls-9{stroke-miterlimit:10;}.cls-1,.cls-3,.cls-7,.cls-8,.cls-5,.cls-6,.cls-9{stroke-linecap:round;}.cls-1,.cls-3,.cls-4,.cls-8,.cls-5,.cls-6{stroke:#6a0d38;}.cls-3,.cls-4,.cls-8{stroke-width:1.78px;}.cls-7{stroke-width:1.64px;}.cls-7,.cls-8,.cls-9{fill:none;}.cls-7,.cls-9{stroke:#fff;}.cls-5,.cls-9{stroke-width:1.45px;}.cls-6{stroke-width:1.7px;}</style></defs><g id="Layer_1-2"><g><circle class="cls-2" cx="144.24" cy="144.24" r="144.24"/><g><g><path class="cls-4" d="m234.36,224.47c-4.98,5.85-10.52,11.2-16.55,15.97-20.2,16.03-45.73,25.6-73.51,25.6s-52.43-9.24-72.44-24.75c-6.48-5.02-12.44-10.72-17.75-16.96,1.95-1.37,4.17-2.69,6.68-3.9,2.6-1.25,5.31-2.45,8.08-3.62,3.38-1.45,6.85-2.85,10.31-4.25,3.94-1.58,7.87-3.15,11.66-4.75.09-.05.18-.08.27-.12.82-.37,1.64-.72,2.45-1.07.18-.08.37-.17.55-.24.87-.38,1.72-.75,2.56-1.14,5.72-2.6,10.91-5.36,15.01-8.4.78-.58,1.52-1.17,2.22-1.78.56-.49,1.1-.96,1.58-1.42,5.82-5.43,7.17-9.47,7.47-14.61.09-1.45.11-2.97.11-4.64v-27.48l12.09-1.64,3.85-.52,4.98-.68v-.03l.15.02.14-.02s-.02.02-.02.03l9.54,1.29,3.35.46,8.04,1.1v27.48c0,1.66,0,3.17.11,4.6.32,5.6,1.89,9.89,9.06,16.07.93.81,1.93,1.58,3.01,2.34,1.28.91,2.66,1.8,4.13,2.65,2.97,1.77,6.27,3.42,9.79,5.05,1.74.79,3.5,1.58,5.31,2.34h.02c.08.03.12.06.2.09.7.29,1.4.59,2.1.88.64.27,1.28.53,1.92.81,4.29,1.77,8.69,3.5,13.05,5.28,3.47,1.42,6.9,2.85,10.18,4.34,1.16.52,2.3,1.05,3.42,1.58,2.6,1.25,4.89,2.62,6.88,4.03Z"/><g><path class="cls-4" d="m87.8,115.55s-9.44,48.23-13.98,60.82c-4.54,12.58-12.58,28.66-12.23,34.25.32,5.19-.86,11.28,1.76,14.92.2.28.43.55.69.81,0,0,6.29,7.34,11.88,7.34,0,0,3.84-2.8,4.54-12.23s-1.4-33.55,4.54-44.74c5.94-11.18,11.88-23.77,11.53-39.84"/><path class="cls-4" d="m99.33,143.28s-.47,15.61-5.36,27.03c-4.89,11.42-9.79,21.2-9.55,37.98.23,16.78-5.13,26.33-5.13,26.33,0,0,6.52,6.76,13.05,4.66s8.62-30.29,8.62-37.05-.23-15.84,1.17-22.6c1.4-6.76,4.66-15.84,5.13-20.04"/><path class="cls-4" d="m112.15,168.68s-5.59,4.66-5.59,9.32-2.8,25.4-2.8,28.89-3.03,28.19-5.13,31.69c-2.1,3.5,1.63,5.83,4.89,5.59s11.65,1.17,12.58-.47-.93-26.1-.23-30.99-3.26-24.47-2.8-27.26c.47-2.8,4.43-9.55,4.43-9.55"/></g><g><path class="cls-4" d="m193.7,110.13s16.02,53.65,20.56,66.23c4.54,12.58,12.58,28.66,12.23,34.25-.32,5.19.86,11.28-1.76,14.92-.2.28-.43.55-.69.81,0,0-6.29,7.34-11.88,7.34,0,0-3.84-2.8-4.54-12.23s1.4-33.55-4.54-44.74-13.4-33.09-13.05-49.16"/><path class="cls-4" d="m186.54,139.08s2.68,19.81,7.57,31.22,9.79,21.2,9.55,37.98c-.23,16.78,5.13,26.33,5.13,26.33,0,0-6.52,6.76-13.05,4.66-6.52-2.1-8.62-30.29-8.62-37.05s.23-15.84-1.17-22.6c-1.4-6.76-5.47-19.05-5.94-23.24"/><path class="cls-4" d="m175.18,167.39s6.35,5.94,6.35,10.6,2.8,25.4,2.8,28.89,3.03,28.19,5.13,31.69c2.1,3.5-1.63,5.83-4.89,5.59-3.26-.23-11.65,1.17-12.58-.47-.93-1.63.93-26.1.23-30.99s3.26-24.47,2.8-27.26c-.47-2.8-4.66-9.9-4.66-9.9"/></g><path class="cls-4" d="m95.53,78.78c-4.92,7.9-12.91,24.96-4.39,42.76.38.79.72,1.6.96,2.43,2.44,8.19,17.79,56.06,47.3,69.15,1.58.7,3.26,1.13,4.98,1.26,2.71.2,7.12.21,11.34-1.16,3.3-1.07,6.1-3.32,7.97-6.25,5.56-8.73,21.76-36.1,28.31-68.53.04-.2.09-.41.14-.61.59-2.32,4.46-18.6.76-33.95-1.32-5.47-5.55-9.76-10.99-11.19-14.81-3.9-48.14-10.42-78.17-.35-3.4,1.14-6.31,3.39-8.21,6.43Z"/><path class="cls-4" d="m97.35,76.52l46.49-56.97,45.67,57.53c.23.29-.04.69-.39.59-6.65-2.03-41.58-11.39-91.76-1.15Z"/><path class="cls-3" d="m88.5,98.89s57.32-28.54,105.79.12"/><path class="cls-3" d="m143.6,20.71s-2.1,43.11-.23,50.1"/><path class="cls-3" d="m88.85,114.38s51.96-26.1,104.39-4.89"/><path class="cls-6" d="m108.65,125.82s17.31-15.31,28.62-5.99"/><path class="cls-6" d="m116.2,126.93s14.87-10.43,18.86-.89c3.99,9.54-14.87,3.77-14.87,3.77"/><path class="cls-1" d="m179.71,125.53s-16.76-14.82-27.72-5.8"/><path class="cls-1" d="m172.41,126.61s-14.39-10.1-18.26-.86c-3.87,9.24,14.39,3.65,14.39,3.65"/><path class="cls-3" d="m140.26,170.77s12.12,3.96,15.84-6.52c0,0-4.89-1.63-6.76-1.17-1.86.47-6.29,1.63-8.62,0s-5.59,3.03-5.59,3.03"/><path class="cls-8" d="m146.07,28.55c5.68,3.92,8.86,10.43,12.47,16.31,5.92,9.64,13.56,18.23,22.46,25.22"/><path class="cls-8" d="m147.15,34.69c3,8.76,6.55,18.11,14.28,23.21,1.74,1.15,3.65,2.04,5.38,3.21,3.8,2.57,6.56,6.37,9.25,10.08"/><path class="cls-8" d="m145.56,46.05l1.09,4.51c.81,3.37,1.71,6.91,4.09,9.43,1.52,1.61,3.52,2.67,5.48,3.69,3.55,1.86,7.1,3.72,10.65,5.58"/><path class="cls-8" d="m186.36,80.26c2.6,4.07,3.97,8.91,3.89,13.74"/><path class="cls-8" d="m179.23,78.51c2.02,4.13,3.4,8.59,4.05,13.14"/><path class="cls-8" d="m171.54,77.01c1,.06,1.51,1.19,1.81,2.14.97,3.08,1.93,6.16,2.9,9.24"/><path class="cls-8" d="m151.98,187.2c-.63,2.6-1.88,5.05-3.63,7.07"/><path class="cls-7" d="m150.95,171.91c-2.63,1.08-6.28,1.42-11.31-.03"/></g><path class="cls-7" d="m193.85,118.18s14.91,49.4,20.27,63.61,10.49,21.44,10.49,35.65"/><path class="cls-7" d="m193.44,173.29s6.47,15.38,7.17,23.94,1.4,29.01,6.12,36.52"/><path class="cls-7" d="m179.81,180.8s5.24,49.81,7.51,56.45c0,0,2.8,5.24-1.75,5.24"/><path class="cls-7" d="m123.25,104.9s38.73-8.11,68.11,5.2c.51.23.79.78.68,1.33-1.12,5.75-7.65,36.94-21.14,59.07"/><path class="cls-7" d="m145.74,34.65s2.33,13.28,12.35,21.79c0,0,8.62,5.71,11.07,8.62"/><path class="cls-7" d="m154.71,70.53s20.27.82,31.57,4.89"/><path class="cls-7" d="m173.35,76.3s3.5,6.12,4.11,11.71"/><path class="cls-7" d="m117.08,214.37s.75,27.74.63,30.07-14.03.92-14.03.92"/><path class="cls-7" d="m105.54,159.31s-1.49,6.38-3.32,13.28c-1.83,6.9-2.97,16.17-2.8,21.32"/><path class="cls-7" d="m74.9,232.29c.34.12.72.03.98-.23.69-.72,2-2.5,2.75-6.24"/><path class="cls-7" d="m63.89,206.43s-.76,2.5-.7,4.89.06,5.42.12,6.58.17,4.54,1.22,6.41"/></g><g><path class="cls-5" d="m139.86,145.43c-.55,1-1.02,2.14-1.15,3.28-.12,1.17.35,2.69,1.55,3.14,1.57.58,2.91-1.31,4.46-.73.83.31,4.03.93,5.17.1,1.14-.83,1.14-.52,2.48,0s3.2.41,3.62-2.17c0,0-.21-1.86-2.07-3.72"/><path class="cls-9" d="m153.07,145.86s2.75,2.48,1.32,4.19"/></g></g></g></svg>