<?xml version="1.0" encoding="UTF-8"?><svg id="Layer_2" xmlns="http://www.w3.org/2000/svg" viewBox="0 0 288.47 288.47"><defs><style>.cls-1,.cls-2,.cls-3{fill:#f68e1e;}.cls-1,.cls-4{stroke-linecap:round;}.cls-1,.cls-4,.cls-3{stroke-miterlimit:10;stroke-width:1.64px;}.cls-1,.cls-3{stroke:#6a0d38;}.cls-4{fill:none;stroke:#fff;}</style></defs><g id="Layer_1-2"><g><circle class="cls-2" cx="144.24" cy="144.24" r="144.24"/><g><g><rect class="cls-3" x="201.86" y="121.64" width="2.06" height="91.59" transform="translate(66.42 -57.45) rotate(19.22)"/><rect class="cls-3" x="210.73" y="124.73" width="2.06" height="91.59" transform="translate(67.91 -60.18) rotate(19.21)"/><rect class="cls-3" x="219.59" y="127.82" width="2.06" height="91.59" transform="translate(69.42 -62.93) rotate(19.21)"/><polygon class="cls-3" points="223.88 118.12 220.74 127.14 216.49 128.43 213.97 124.78 217.12 115.77 219.73 119.12 223.88 118.12"/><polygon class="cls-3" points="232.74 121.21 229.6 130.23 225.35 131.51 222.83 127.87 225.97 118.85 228.59 122.21 232.74 121.21"/><polygon class="cls-3" points="241.6 124.3 238.45 133.31 234.2 134.6 231.69 130.96 234.83 121.94 237.45 125.3 241.6 124.3"/><path class="cls-3" d="m205.13,236.02l-28.89-10.07,25.15-72.17c1.13-3.24,4.67-4.95,7.9-3.82l17.17,5.98c3.24,1.13,4.95,4.67,3.82,7.9l-25.15,72.17Z"/><rect class="cls-3" x="192.24" y="169.6" width="30.59" height="26.09" transform="translate(71.67 -58.12) rotate(19.21)"/><path class="cls-3" d="m217.38,186.07c-1.89,5.43-7.84,8.3-13.27,6.41-2.24-.78-4.05-2.25-5.25-4.09,3.97.69,7.98-1.58,9.35-5.52,1.37-3.94-.35-8.2-3.91-10.12,2.1-.7,4.42-.73,6.68.05,5.43,1.89,8.3,7.84,6.41,13.27Z"/></g><path class="cls-3" d="m141.55,152.9c0,9.61-7.79,17.4-17.4,17.4-8,0-14.74-5.42-16.76-12.78-1.83.51-3.77.77-5.77.77-12.3,0-22.27-9.97-22.27-22.28s9.97-22.27,22.27-22.27,22.01,9.71,22.27,21.79c.09-.02.17-.02.26-.02,9.61,0,17.4,7.79,17.4,17.39Z"/><path class="cls-3" d="m149.55,152.9c0,9.61,7.79,17.4,17.4,17.4,8,0,14.74-5.42,16.76-12.78,1.83.51,3.77.77,5.77.77,12.3,0,22.27-9.97,22.27-22.28s-9.97-22.27-22.27-22.27-22.01,9.71-22.27,21.79c-.09-.02-.17-.02-.26-.02-9.61,0-17.4,7.79-17.4,17.39Z"/><path class="cls-3" d="m225.18,227.67c-4.58,4.82-9.56,9.26-14.91,13.27-7.9,5.9-16.59,10.84-25.87,14.61-2.3.95-4.65,1.82-7.03,2.61-6.17,2.06-12.58,3.6-19.17,4.61-5.8.89-11.73,1.35-17.78,1.35s-11.73-.44-17.4-1.29c-3.69-.56-7.33-1.28-10.89-2.18-16.85-4.17-32.24-12.01-45.29-22.63,0-14.56-1.25-32.58,21.52-41.1,13.09-4.89,20.41-7.55,24.8-9.17,3.27-1.19,4.96-1.8,6.23-2.34,3-1.25,4.5-3.75,4.5-6.25v-21.77l13.54,6.73,8.62,4.28,7.91-3.93,14.25-7.07v21.77c0,2.49,1.5,5,4.5,6.25.53.23,1.11.45,1.85.72h0c2.31.89,6.08,2.24,13.77,5.07,1.4.51,2.91,1.07,4.58,1.68.62.24,1.26.48,1.94.72,2.07.78,4.35,1.62,6.86,2.55.11.05.21.09.33.12.53.2,1.05.41,1.61.6.03.01.07.03.11.05,2.45.92,4.62,1.95,6.55,3.06.63.36,1.23.74,1.8,1.13,1.52,1.01,2.87,2.09,4.05,3.24,6.91,6.56,8.6,15,9.01,23.3Z"/><path class="cls-3" d="m194.63,90.64c-4.99,44.91-11.2,55.44-15.29,61.2-5.93,8.36-25.29,20.96-33.27,20.96s-27.33-12.6-33.26-20.96c-4.08-5.77-10.3-16.29-15.3-61.2-4.99-44.89,48.56-59.86,48.56-59.86,0,0,53.56,14.97,48.56,59.86Z"/><path class="cls-3" d="m177.37,258.17c-6.17,2.06-12.58,3.6-19.17,4.61-5.8.89-11.73,1.35-17.78,1.35s-11.73-.44-17.4-1.29c-3.69-.56-7.33-1.28-10.89-2.18l-23.77-63.72s-1.23-2.7,4.02-4.2c5.26-1.5,14.26-5.99,16.76-6.5,2.37-.47,3.86,1.32,4.02,1.53h.02s4.32,4.76,4.32,4.76l34.01,37.28,25.86,28.36Z"/><path class="cls-3" d="m202.06,196.29l-5.23,17.54-5.21,17.49-7.22,24.23c-2.3.95-4.65,1.82-7.03,2.61l-25.86-28.36,23.06-43.65h0c.12-.26,1.44-2.87,4.31-1.98,1.46.45,6.01,2.21,10.53,3.99,1.55.63,3.09,1.25,4.52,1.83.68.27,1.32.54,1.92.8,2.06.84,3.65,1.52,4.25,1.82.93.47,1.43,1.19,1.68,1.85.12.32.2.62.23.87.09.56.05.96.05.96Z"/><path class="cls-3" d="m112.64,90.7s1.13,25.9-21.02,34.16-35.66-12.39-28.15-27.78c7.51-15.39,24.77-15.39,24.77-15.39l24.4,9.01Z"/><path class="cls-3" d="m145.74,25.13c-.75-.03-1.52-.08-2.28-.09.74-.01,1.47-.03,2.22-.03,0,0,.02.04.06.12Z"/><path class="cls-3" d="m203.09,88.45c.15,8.35-3.51,8.53-8.77,4.8-2.3-1.62-4.93-4.01-7.66-6.79-6.44-6.52-13.53-15.18-18.86-21.29-4.94-5.66-10.38-9.8-15.3-12.99-2.82-1.85-5.47-3.36-7.76-4.67-.47-.26-.9-.51-1.34-.77-.13.08-.29.17-.44.26-4.37,2.51-10.29,5.78-16.22,10.68-2.61,2.15-5.24,4.62-7.73,7.49-5.26,6.02-12.24,14.53-18.59,21.02-1.05,1.07-2.07,2.09-3.08,3-7.7,7.22-13.81,10-13.62-.75,0-.27.01-.53.03-.8.04-1.71.18-3.56.41-5.53,1.7-14.88,8.72-35.86,27.07-47.81,7.76-5.06,17.57-8.5,29.85-9.19.75-.03,1.52-.08,2.28-.09h.08c.77.01,1.53.06,2.28.09,14.71.83,25.87,5.6,34.23,12.39,15.05,12.18,21.08,30.83,22.67,44.44.21,1.76.33,3.44.41,5,.01.51.03,1.01.05,1.49Z"/><path class="cls-3" d="m143.38,25.04c-.77.01-1.53.06-2.28.09.05-.08.06-.12.06-.12.75,0,1.49.01,2.22.03Z"/><path class="cls-3" d="m143.8,57.67c-9.76,0-15.39,18.39-23.27,20.27,0,0-3.38,15.39-18.39,19.89-15.02,4.5-23.27-3.38-25.15-9.38,0,0,5.26,2.25,10.14-3.75,4.88-6.01,5.63-12.39,12.76-13.89,0,0,.38-9.01,6.76-16.14s19.14-17.64,28.9-16.14c9.76,1.5,8.26,19.14,8.26,19.14Z"/><path class="cls-3" d="m175.2,90.7s-1.13,25.9,21.02,34.16,35.66-12.39,28.15-27.78c-7.51-15.39-24.77-15.39-24.77-15.39l-24.4,9.01Z"/><path class="cls-3" d="m144.05,57.67c9.76,0,15.39,18.39,23.27,20.27,0,0,3.38,15.39,18.39,19.89,15.02,4.5,23.27-3.38,25.15-9.38,0,0-5.26,2.25-10.14-3.75-4.88-6.01-5.63-12.39-12.76-13.89,0,0-.38-9.01-6.76-16.14-6.38-7.13-19.14-17.64-28.9-16.14-9.76,1.5-8.26,19.14-8.26,19.14Z"/><path class="cls-3" d="m153.3,50.32c-3.04,8.73-12.61,13.36-21.34,10.31-3.6-1.26-6.51-3.63-8.45-6.58,6.39,1.1,12.83-2.54,15.04-8.88,2.21-6.34-.57-13.19-6.29-16.29,3.38-1.12,7.11-1.18,10.74.09,8.74,3.04,13.36,12.61,10.31,21.34Z"/><line class="cls-1" x1="101.76" y1="203.6" x2="124.14" y2="255.04"/><line class="cls-1" x1="112.65" y1="196.94" x2="157.03" y2="255.04"/><line class="cls-1" x1="110.43" y1="202.19" x2="135.35" y2="250.24"/><line class="cls-1" x1="180.65" y1="190.55" x2="160.69" y2="229.72"/><line class="cls-1" x1="193.71" y1="196.94" x2="178.71" y2="250.24"/><line class="cls-1" x1="186.21" y1="194.68" x2="170.67" y2="235.98"/><path class="cls-3" d="m121.44,107.32c-1.47.44-2.98,5.81,1.16,7.26,3.91,1.36,5.68-1.85,5.75-3.73.06-1.77-.36-2.75-.36-2.75"/><path class="cls-3" d="m169.54,107.32c1.47.44,2.98,5.81-1.16,7.26-3.91,1.36-5.68-1.85-5.75-3.73-.06-1.77.36-2.75.36-2.75"/><path class="cls-3" d="m132.42,113s-1.44-4.88-5.74-5.17c-4.31-.29-9.47-1.15-11.48-1.87l1.72,4.88"/><path class="cls-3" d="m158.56,113s1.44-4.88,5.74-5.17c4.31-.29,9.47-1.15,11.48-1.87l-1.72,4.88"/><path class="cls-3" d="m135.35,100.28c-1.88-.38-2.82-2.25-6.19-3.19-3.38-.94-5.63,0-9.57-.19-3.94-.19-6.76-2.06-6.76-2.06"/><path class="cls-3" d="m153.18,100.28c1.88-.38,2.82-2.25,6.19-3.19,3.38-.94,5.63,0,9.57-.19,3.94-.19,6.76-2.06,6.76-2.06"/><path class="cls-3" d="m137.61,134.06c-.31,1.56.63,2.06,1.44,2.44.81.38,1.94,2.06,4.63,2.06,3.11,0,3.77-1.45,4.75-1.75,1.11-.34,2.64-.65,2.73-2.43"/><path class="cls-3" d="m159.16,148.12s-3.57,2-6.85,2.07c-3.28.07-4.78-.36-8.42-.36s-5.14.43-8.42.36c-3.28-.07-6.85-2.07-6.85-2.07"/><path class="cls-3" d="m157.03,147.34c-.14,0-5.54-2.25-7.32-2.25s-2.77.56-4.55.56-2.49-.8-4.22-.8-7.55,1.6-9.29,2.3"/><path class="cls-3" d="m134.98,153.25s2.63,2.49,9.1,2.49,8.54-1.74,8.54-1.74"/><line class="cls-4" x1="194.98" y1="198.33" x2="186.59" y2="228.57"/><line class="cls-4" x1="187.47" y1="195.1" x2="180.48" y2="214.32"/><line class="cls-4" x1="181.88" y1="191.43" x2="177.51" y2="199.82"/><path class="cls-4" d="m113.2,258.71s25.16,9.26,61.69-1.22"/><path class="cls-4" d="m125.25,164.52s10.4,8.13,19.75,9.35c7.3.95,16.25-4.8,19.82-7.37.66-.48,2.37-2.62,2.37-1.8l-.79,14.42s0,5.59,5.24,7.51"/><path class="cls-4" d="m154.79,39.74s27.44,6.47,31.63,30.76"/><path class="cls-4" d="m157.93,27.86s36,8.04,42.64,51.73"/><polyline class="cls-4" points="237.04 126.48 239.72 125.95 237.51 132.25"/><polyline class="cls-4" points="228.13 123.33 230.92 122.75 228.77 128.92"/><path class="cls-4" d="m207.97,151l19.92,7.11s1.75,1.86.93,5.13"/><polyline class="cls-4" points="209.6 195.62 216.48 197.95 219.04 191.08"/><path class="cls-4" d="m174.1,96.89s.35,15.55,14.33,25.51c0,0-3.15,18.44-9.61,27.09"/><line class="cls-4" x1="90.3" y1="195.97" x2="108.48" y2="188.28"/></g></g></g></svg>