<?xml version="1.0" encoding="UTF-8"?><svg id="Layer_2" xmlns="http://www.w3.org/2000/svg" viewBox="0 0 288.47 288.47"><defs><style>.cls-1,.cls-2,.cls-3{fill:#f68e1e;}.cls-1,.cls-4,.cls-5{stroke-linecap:round;}.cls-1,.cls-4,.cls-5,.cls-3,.cls-6{stroke-miterlimit:10;stroke-width:1.64px;}.cls-1,.cls-4,.cls-3,.cls-6{stroke:#6a0d38;}.cls-4,.cls-5{fill:none;}.cls-5{stroke:#fff;}.cls-6{fill:#fff;}</style></defs><g id="Layer_1-2"><g><circle class="cls-2" cx="144.24" cy="144.24" r="144.24"/><g><g><path class="cls-3" d="m237.01,210.77c-3.21,5.46-6.88,10.59-10.98,15.38-4.56,5.36-9.64,10.27-15.17,14.64l-9.5-2.51-17.47-4.62-3.75-.99-6.75-1.79-6.68-1.76-.71-.2-3.57-.95-3.35-.88-4.52-1.2-3.14-.82-1.49-.4-.63-.15-1.06-.29-.15-.04-2.64-.7-.24-.06.24-2.37.07-.63.06-.64,3.53-35.24.67-6.71.73-7.26,1.41-14.02.29-2.93.43-4.35.6-5.93,3.81-38.07,5.36-6.46,15.63-18.89,7.06-8.54,9.42-11.39,1.48-1.79c.03.95.14,1.87.32,2.76.29,1.41.77,2.76,1.4,4.07,1.95,4.1,5.36,7.7,8.82,10.76,5.29,4.65,11.25,8.99,14.25,15.36,7.19,15.22-5.67,34.11.73,49.68,3.28,8,11.32,13.94,12.42,22.52,1.23,9.5-6.61,18.39-5.57,27.91.7,6.45,5.3,11.68,7.93,17.6.28.63.53,1.26.75,1.9Z"/><path class="cls-1" d="m194.92,83.66c-1.08,3.37,1.17,6.92,3.85,9.23,2.67,2.32,5.92,4.07,7.92,6.99,3.62,5.29,1.99,12.48-.39,18.42-2.38,5.95-5.45,12.15-4.28,18.45,1.06,5.71,5.38,10.15,9.25,14.49,3.87,4.33,7.67,9.51,7.29,15.3-.55,8.45-9.59,14.15-11.22,22.46-1.05,5.3,1.12,10.68,3.56,15.5,2.44,4.82,5.27,9.68,5.65,15.07.39,5.39-2.62,11.51-7.93,12.5"/><path class="cls-3" d="m186.72,123.06c-3.9,9.64-1.25,21.57,6.38,28.65,3.01,2.8,6.88,5.14,8.13,9.05,1.57,4.93-1.67,9.97-4.68,14.18-5.35,7.49-10.74,16.58-7.97,25.35,1.41,4.48,4.76,8.05,6.9,12.23,2.13,4.18,2.7,9.95-.85,13.02"/><path class="cls-3" d="m172.98,151.24c-1.2,5.49,3.82,10.18,5.78,15.45,1.81,4.86.93,10.3-.57,15.27-1.5,4.96-3.62,9.79-4.28,14.93-.67,5.14.4,10.88,4.3,14.3"/></g><g><path class="cls-3" d="m145.66,223.42l-.24.06-3.11.82-4.07,1.09-1.16.31-.67.17-2.25.6-2.19.57-6.04,1.6-1.8.47-3.92,1.03-.1.03-7.13,1.88-7.41,1.97-3.13.82-17.01,4.49-8.37,2.22c-5.94-4.61-11.4-9.82-16.27-15.55-2.93-3.43-5.64-7.06-8.11-10.86.38-2.16,1.02-4.27,1.91-6.29,2.64-5.92,7.23-11.15,7.94-17.6,1.03-9.52-6.81-18.41-5.58-27.91,1.12-8.58,9.14-14.53,12.42-22.52,6.39-15.57-6.45-34.45.73-49.68,3-6.38,8.96-10.72,14.25-15.36,4.74-4.17,9.32-9.35,10.34-15.45.1-.53.15-1.07.18-1.62.01-.18.03-.35.03-.53l.31.36.88,1.07,6.71,8.12.64.77.96,1.16,4.14,5.01s.04.06.06.08c.17.2.33.39.49.57l1.9,2.29,1.4,1.7,4.03,4.87s.01.01.01.03l1.8,2.18s.03.01.04.03l.15.21,15.41,18.62,3.89,38.88.52,5.19.38,3.73.35,3.47,1.51,15.06.63,6.24.67,6.71,3.53,35.24.06.57.07.7.24,2.37Z"/><path class="cls-3" d="m95.92,83.66c1.08,3.37-1.17,6.92-3.85,9.23-2.67,2.32-5.92,4.07-7.92,6.99-3.62,5.29-1.99,12.48.39,18.42,2.38,5.95,5.45,12.15,4.28,18.45-1.06,5.71-5.38,10.15-9.25,14.49-3.87,4.33-7.67,9.51-7.29,15.3.55,8.45,9.59,14.15,11.22,22.46,1.05,5.3-1.12,10.68-3.57,15.5-2.44,4.82-5.27,9.68-5.65,15.07-.39,5.39,2.62,11.51,7.93,12.5"/><path class="cls-3" d="m104.13,123.06c3.9,9.64,1.25,21.57-6.38,28.65-3.01,2.8-6.88,5.14-8.13,9.05-1.57,4.93,1.67,9.97,4.68,14.18,5.35,7.49,10.74,16.58,7.97,25.35-1.41,4.48-4.76,8.05-6.9,12.23-2.13,4.18-2.7,9.95.85,13.02"/><path class="cls-3" d="m117.87,151.24c1.2,5.49-3.82,10.18-5.78,15.45-1.8,4.86-.93,10.3.57,15.27,1.5,4.96,3.62,9.79,4.28,14.93.67,5.14-.4,10.88-4.3,14.3"/></g><g><polygon class="cls-6" points="143.55 43.49 143.55 43.79 143.31 43.64 143.55 43.49"/><path class="cls-6" d="m143.31,168.72c.09,0,.16,0,.24-.01h0s-.24.01-.24.01Z"/><path class="cls-3" d="m226.02,226.15c-4.56,5.36-9.64,10.27-15.17,14.64-18.52,14.69-41.92,23.47-67.39,23.47s-48.06-8.47-66.41-22.69c-5.94-4.61-11.4-9.82-16.27-15.55,1.79-1.26,3.82-2.47,6.13-3.57,2.39-1.14,4.87-2.25,7.41-3.32,3.1-1.33,6.28-2.61,9.45-3.89,3.61-1.45,7.21-2.89,10.69-4.35.08-.04.17-.07.25-.11.75-.33,1.51-.66,2.25-.98.17-.07.33-.15.5-.22.8-.35,1.58-.68,2.34-1.05,5.25-2.39,10.01-4.91,13.76-7.7.71-.53,1.4-1.07,2.04-1.63.52-.45,1-.88,1.45-1.3,5.33-4.98,6.57-8.68,6.85-13.4.08-1.33.1-2.72.1-4.26v-25.19l11.08-1.51,3.53-.47,4.56-.63v-.03h.14s.13,0,.13,0c0,0-.01.01-.01.03l8.75,1.19,3.07.42,7.37,1v25.19c0,1.52,0,2.9.1,4.21.29,5.14,1.73,9.07,8.3,14.74.85.74,1.77,1.45,2.76,2.15,1.17.84,2.44,1.65,3.78,2.43,2.72,1.62,5.75,3.14,8.97,4.63,1.59.73,3.21,1.45,4.87,2.15h.01c.07.03.11.06.18.08.64.27,1.28.54,1.93.81.59.25,1.17.49,1.76.74,3.94,1.62,7.97,3.21,11.96,4.84,3.18,1.3,6.32,2.61,9.34,3.98,1.06.47,2.11.96,3.14,1.45,2.39,1.14,4.48,2.4,6.31,3.7Z"/><path class="cls-3" d="m152.73,240.15c0,11.23-4.27,20.33-9.54,20.33s-9.54-9.1-9.54-20.33,4.27-20.33,9.54-20.33,9.54,9.1,9.54,20.33Z"/><path class="cls-3" d="m137.05,240.45c-2.18,11.01-8.14,19.11-13.31,18.09-5.17-1.02-7.58-10.78-5.4-21.8s8.14-19.11,13.31-18.09,7.58,10.78,5.4,21.8Z"/><path class="cls-3" d="m121.62,237.69c-4.28,10.38-11.7,17.16-16.57,15.15-4.87-2.01-5.34-12.05-1.06-22.43,4.28-10.38,11.7-17.16,16.57-15.15,4.87,2.01,5.34,12.05,1.06,22.43Z"/><path class="cls-3" d="m107.01,231.98c-6.22,9.35-14.82,14.56-19.2,11.64-4.38-2.92-2.9-12.86,3.32-22.21,6.22-9.35,14.82-14.56,19.2-11.64,4.38,2.92,2.9,12.86-3.32,22.21Z"/><path class="cls-3" d="m149.63,240.45c2.18,11.01,8.14,19.11,13.31,18.09s7.58-10.78,5.4-21.8c-2.18-11.01-8.14-19.11-13.31-18.09s-7.58,10.78-5.4,21.8Z"/><path class="cls-3" d="m165.06,237.69c4.28,10.38,11.7,17.16,16.57,15.15,4.87-2.01,5.34-12.05,1.06-22.43-4.28-10.38-11.7-17.16-16.57-15.15-4.87,2.01-5.34,12.05-1.06,22.43Z"/><path class="cls-3" d="m179.67,231.98c6.22,9.35,14.82,14.56,19.2,11.64s2.9-12.86-3.32-22.21c-6.22-9.35-14.82-14.56-19.2-11.64-4.38,2.92-2.9,12.86,3.32,22.21Z"/><g><path class="cls-3" d="m154.71,222.7c0,.3,0,.6-.01.91-.07,2.5-.43,4.88-1.04,7.04-1.81,6.56-5.82,11.13-10.46,11.13s-8.85-4.78-10.59-11.6h0c-.53-2.03-.83-4.22-.91-6.52-.01-.32-.01-.63-.01-.95,0-1.22.07-2.42.2-3.58,1.27.17,2.56.3,3.86.39.96.1,1.94.16,2.92.2,1.45.07,2.92.12,4.39.12,1.57,0,3.12-.04,4.66-.13.86-.04,1.71-.09,2.56-.17,1.43-.1,2.84-.26,4.23-.43.13,1.17.2,2.38.2,3.61Z"/><path class="cls-3" d="m148.23,223.83c0,.12,0,.23-.01.35-.09,5.08-2.3,9.14-5.02,9.14s-4.94-4.04-5.02-9.13c-.01-.12-.01-.24-.01-.36,0-1.48.19-2.88.5-4.13,1.45.07,2.92.12,4.39.12,1.57,0,3.12-.04,4.66-.13.33,1.25.52,2.66.52,4.15Z"/></g><g><path class="cls-3" d="m135.74,219.5c-.12,1.22-.33,2.46-.62,3.71-.06.24-.12.5-.19.75-.58,2.23-1.37,4.32-2.33,6.19h0c-3.27,6.33-8.35,10.12-13.01,9.04-4.63-1.08-7.53-6.66-7.7-13.7-.04-2.02.13-4.15.56-6.33.06-.39.14-.76.23-1.15.26-1.11.58-2.19.94-3.21,1.22.43,2.45.83,3.68,1.21.92.29,1.86.55,2.79.81,2.91.78,5.87,1.41,8.9,1.9.96.14,1.91.29,2.89.4,1.27.17,2.56.3,3.86.39Z"/><path class="cls-3" d="m128.99,218.71c.04,1.3-.1,2.71-.43,4.15-.03.12-.06.23-.09.33-1.24,4.92-4.32,8.38-6.97,7.77-2.62-.62-3.86-4.99-2.86-9.89.03-.16.06-.33.1-.49.32-1.38.79-2.66,1.35-3.77,2.91.78,5.87,1.41,8.9,1.9Z"/></g><g><path class="cls-3" d="m117.3,216c-.39,1.09-.85,2.19-1.38,3.28l-.43.86c-1.07,1.99-2.27,3.79-3.6,5.34-4.59,5.43-10.41,7.96-14.71,5.86-5.41-2.65-6.48-11.69-2.65-20.66l.19.07c1.73-.75,3.43-1.48,5.08-2.25.88.5,1.77.98,2.68,1.44,2.73,1.43,5.56,2.71,8.45,3.81.89.36,1.78.71,2.69,1.02,1.22.43,2.45.83,3.68,1.21Z"/><path class="cls-3" d="m110.92,213.77c-.27,1.18-.72,2.43-1.32,3.68-.09.19-.17.36-.27.53-2.33,4.38-6.03,6.94-8.42,5.76-2.36-1.15-2.62-5.48-.73-9.9.13-.27.26-.55.39-.82.56-1.15,1.21-2.17,1.91-3.07,2.73,1.43,5.56,2.71,8.45,3.81Z"/></g><g><path class="cls-3" d="m174.11,225.47c-.16,7.05-3.05,12.64-7.69,13.72-4.55,1.05-9.51-2.52-12.77-8.55-1.07-1.99-1.96-4.23-2.58-6.66-.07-.26-.13-.5-.19-.76-.29-1.25-.5-2.49-.62-3.7,1.43-.1,2.84-.26,4.23-.43.83-.12,1.68-.23,2.52-.37,3.01-.48,5.99-1.11,8.9-1.89.94-.26,1.84-.52,2.78-.81h.01c1.24-.36,2.46-.76,3.68-1.21.36,1.02.66,2.09.92,3.2.09.39.17.79.24,1.18.43,2.17.6,4.29.55,6.29Z"/><path class="cls-3" d="m164.51,230.96c-2.65.6-5.73-2.84-6.97-7.76-.03-.12-.06-.23-.09-.35-.33-1.44-.47-2.85-.43-4.15,3.01-.48,5.99-1.11,8.9-1.89.58,1.11,1.04,2.38,1.35,3.76.04.17.07.35.1.52.99,4.89-.24,9.24-2.86,9.86Z"/></g><g><path class="cls-3" d="m188.84,231.35c-4.3,2.1-10.13-.45-14.73-5.87-1.31-1.54-2.52-3.32-3.57-5.31-.14-.29-.3-.58-.45-.88-.53-1.09-.99-2.19-1.38-3.27,1.24-.36,2.46-.76,3.68-1.21.91-.32,1.81-.65,2.71-1.01,2.89-1.12,5.71-2.39,8.45-3.81,1.01-.5,2-1.04,2.98-1.6,1.58.73,3.21,1.45,4.87,2.16h.01s.04.1.06.16c3.83,8.97,2.75,17.99-2.63,20.64Z"/><path class="cls-3" d="m185.11,223.75c-2.4,1.18-6.07-1.38-8.41-5.73-.1-.19-.2-.37-.29-.56-.6-1.24-1.05-2.48-1.31-3.66,2.89-1.12,5.71-2.39,8.45-3.81.69.88,1.34,1.9,1.9,3.04.14.29.27.58.4.86,1.87,4.4,1.58,8.71-.75,9.86Z"/></g><polygon class="cls-6" points="143.31 43.64 143.05 43.79 143.05 43.49 143.31 43.64"/><path class="cls-3" d="m161.91,184.55h-37.42c-1.85,0-3.36-1.5-3.36-3.36h0c0-1.85,1.5-3.36,3.36-3.36h37.42c1.85,0,3.36,1.5,3.36,3.36h0c0,1.85-1.5,3.36-3.36,3.36Z"/><path class="cls-3" d="m191.6,210.63s-.09.06-.13.07c-1.83,1.12-3.7,2.19-5.61,3.18-2.97,1.54-6.02,2.92-9.15,4.13-1.02.42-2.07.81-3.14,1.17-.99.35-2,.69-3.02.98-1.05.35-2.1.65-3.17.94-3.21.88-6.49,1.58-9.83,2.1-.95.14-1.9.27-2.85.4-1.19.14-2.4.27-3.61.37-.95.09-1.9.14-2.86.2-1.71.1-3.43.14-5.17.14-1.64,0-3.27-.04-4.88-.13-1.08-.06-2.17-.13-3.24-.23-1.09-.09-2.16-.2-3.24-.32-1.08-.14-2.16-.29-3.22-.46-3.34-.53-6.62-1.24-9.83-2.12-1.05-.27-2.1-.59-3.15-.92-1.02-.3-2.03-.63-3.04-.99-1.05-.36-2.09-.75-3.12-1.17-3.14-1.21-6.2-2.59-9.15-4.15-1.86-.96-3.67-2-5.46-3.08,1.73-.75,3.43-1.48,5.08-2.25.88.5,1.77.98,2.68,1.44,2.73,1.43,5.56,2.71,8.45,3.81.89.36,1.78.71,2.69,1.02,1.22.43,2.45.83,3.68,1.21.92.29,1.86.55,2.79.81,2.91.78,5.87,1.41,8.9,1.9.96.14,1.91.29,2.89.4,1.27.17,2.56.3,3.86.39.96.1,1.94.16,2.92.2,1.45.07,2.92.12,4.39.12,1.57,0,3.12-.04,4.66-.13.86-.04,1.71-.09,2.56-.17,1.43-.1,2.84-.26,4.23-.43.83-.12,1.68-.23,2.52-.37,3.01-.48,5.99-1.11,8.9-1.89.94-.26,1.84-.52,2.78-.81h.01c1.24-.36,2.46-.76,3.68-1.21.91-.32,1.81-.65,2.71-1.01,2.89-1.12,5.71-2.39,8.45-3.81,1.01-.5,2-1.04,2.98-1.6,1.58.73,3.21,1.45,4.87,2.16h.01c.07.03.12.06.19.09Z"/></g><path class="cls-3" d="m186.95,132.26c-4.63,17.81-26.89,39.15-43.4,39.57-.09.01-.16.01-.24.01s-.17,0-.26-.01c-16.51-.42-38.76-21.76-43.4-39.57-4.68-17.99-2.52-58.3-2.52-58.3l45.92-27.05.26-.16.24.16,45.92,27.05s2.16,40.3-2.52,58.3Z"/><path class="cls-3" d="m198.42,62.19c-.2.96-.43,1.93-.74,2.85-1.55,4.79-4.44,8.9-8.09,11.53-1.95,1.4-4.13,2.37-6.45,2.79-1.83.33-3.54.5-5.14.56-13.95.45-19.02-8.83-19.02-8.83,0,0-1.76,5.04-10.76,5.04-3.22,0-5.75-.64-7.65-1.48-3.4-1.49-4.84-3.56-4.84-3.56,0,0-1.86,2.79-7.02,5.14-.18.08-.36.15-.54.24-3.24,1.4-7.7,2.58-13.7,2.83-.13.01-.25.03-.38.01h-.03c-.54.04-1.1.06-1.69.04-.15.01-.32.01-.49.01-4.19,0-7.56-1.23-10.16-3.22-1.16-.89-2.18-1.93-3.03-3.08-2.67-3.56-3.95-8.18-4.02-12.7-.01-.52,0-1.03.03-1.53.2-4.63,1.66-9.01,4.21-11.9,1.1-1.24,2.16-2.54,3.24-3.87,6.71-8.22,14.15-17.3,35.99-17.3,16.56,0,24.04,6.47,24.04,6.47,0,0,20.04-5.75,31.47,9.36,1.69,2.23,2.94,4.59,3.8,6.98,1.65,4.58,1.84,9.29.96,13.63Z"/><g><path class="cls-4" d="m128.66,117.48s-3.14-4.15-7.61-4.31c-5.14-.19-8.2,1.31-9.83,1.31-2.43,0-3.52-2.29-3.52-2.29"/><path class="cls-4" d="m157.1,117.48s3.14-4.15,7.61-4.31c5.14-.19,8.2,1.31,9.83,1.31,2.43,0,3.52-2.29,3.52-2.29"/><path class="cls-4" d="m130.72,101.8c-4.61-2.6-10.02-3.78-15.3-3.32-2.05.18-4.08.6-6.14.58-2.06-.02-4.21-.53-5.7-1.95"/><path class="cls-4" d="m154.01,101.8c4.61-2.6,10.02-3.78,15.3-3.32,2.05.18,4.08.6,6.14.58,2.06-.02,4.21-.53,5.7-1.95"/><path class="cls-4" d="m137.58,132.92c.47.9,1.09.62,2.27.9,1.18.28,1.56,1.37,4.07,1.37s2.94-1.47,4.4-1.51c1.47-.05,2.32-.09,2.7-1.23"/><path class="cls-4" d="m160.54,146.83c-2.88,1.53-5.58,2.52-8.28,2.43-2.7-.09-5.31.81-7.96.81s-5.26-.9-7.96-.81c-2.7.09-5.4-.9-8.28-2.43"/><path class="cls-4" d="m133.1,150.07s2.19,7.79,12.23,7.79,11.76-7.07,11.76-7.07"/><path class="cls-4" d="m157.1,146.83s-2.85-3.51-5.55-4.23c-2.7-.72-4.23.09-5.85,0s-4.14-.7-6.3.5c-2.16,1.21-5.58,3.72-5.58,3.72"/></g><g><path class="cls-3" d="m129.8,62.38s7.06,8.98,3.27,19.87c-3.79,10.89-16.13,12.05-20.07,11.84-3.94-.21-5.87-7.48-6.33-10.43-.46-2.95,23.13-21.27,23.13-21.27Z"/><path class="cls-3" d="m121.16,82.24s-2.21,12.19-14.96,11.86c-12.74-.34-13.27-14.94-10.69-19.49,2.58-4.55,25.64,7.63,25.64,7.63Z"/><path class="cls-3" d="m100.83,57.32s6.21-13.09,20.83-8.32c14.62,4.77,7.61,20.12,6.77,22.33-.84,2.21-10.48.79-16.43-.63-5.95-1.42-11.16-13.38-11.16-13.38Z"/><path class="cls-3" d="m106.66,56.58s-12.14-3.77-16.57,5.9c-4.42,9.63,1.58,16.54,5.43,18.54,3.84,2,7.95.95,7.95.95l3.2-25.39Z"/><path class="cls-3" d="m106.83,86.17c5.48,1.27,20.64-.74,19.38-14.8-1.26-14.05-20.43-10.36-23.8-5.41-3.37,4.94-3.46,12.81-1.09,15.67,2.36,2.86,5.51,4.54,5.51,4.54Z"/><path class="cls-3" d="m109.89,77.75s15.9,4.53,16.85-9.48c.95-14.01-16.09-18.45-20.75-11.7-4.66,6.75,3.9,21.18,3.9,21.18Z"/><path class="cls-3" d="m105.99,66.23c-5.58,6.68-3.06,17.62.84,19.94,0,0-14.85-5.87-10.53-19.94,4.32-14.07,16.64-10.18,20.01-4.49,3.37,5.69-.03,9.05-.03,9.05l-10.3-4.57Z"/><path class="cls-3" d="m116.32,71.33c0,3.55-2.88,6.42-6.42,6.42s-6.42-2.88-6.42-6.42,2.88-6.42,6.42-6.42,6.42,2.88,6.42,6.42Z"/></g><g><path class="cls-3" d="m159.03,58.58s4.81,6.12,2.23,13.55-11,8.22-13.69,8.07c-2.69-.14-4-5.1-4.32-7.11-.31-2.01,15.78-14.51,15.78-14.51Z"/><path class="cls-3" d="m153.14,72.13s-1.51,8.32-10.2,8.09c-8.69-.23-9.05-10.19-7.29-13.29s17.49,5.2,17.49,5.2Z"/><path class="cls-3" d="m139.28,55.13s4.23-8.93,14.2-5.67c9.97,3.25,5.19,13.72,4.62,15.23-.57,1.51-7.15.54-11.21-.43-4.06-.97-7.61-9.12-7.61-9.12Z"/><path class="cls-3" d="m143.25,54.63s-8.28-2.57-11.3,4.03c-3.01,6.57,1.08,11.28,3.7,12.64,2.62,1.36,5.42.65,5.42.65l2.18-17.32Z"/><path class="cls-3" d="m143.37,74.81c3.74.87,14.08-.51,13.22-10.09-.86-9.59-13.93-7.06-16.23-3.69-2.3,3.37-2.36,8.74-.75,10.68,1.61,1.95,3.76,3.1,3.76,3.1Z"/><path class="cls-3" d="m145.46,69.07s10.85,3.09,11.49-6.47c.65-9.55-10.97-12.59-14.15-7.98-3.18,4.61,2.66,14.44,2.66,14.44Z"/><path class="cls-3" d="m142.79,61.21c-3.8,4.55-2.09,12.02.57,13.6,0,0-10.13-4-7.18-13.6,2.95-9.6,11.35-6.94,13.65-3.06,2.3,3.88-.02,6.17-.02,6.17l-7.03-3.11Z"/><path class="cls-3" d="m149.84,64.69c0,2.42-1.96,4.38-4.38,4.38s-4.38-1.96-4.38-4.38,1.96-4.38,4.38-4.38,4.38,1.96,4.38,4.38Z"/></g><path class="cls-5" d="m162.27,33.34s25.05-6.41,33.32,14.33"/><path class="cls-5" d="m209.34,189c-1.05,5.3,1.12,10.68,3.56,15.5,2.44,4.82,5.27,9.68,5.65,15.07"/><path class="cls-5" d="m208.3,118.31c-2.38,5.95-5.45,12.15-4.28,18.45,1.06,5.71,5.38,10.15,9.25,14.49"/><path class="cls-5" d="m193.67,212.64s23.53,9.26,30.23,13.81"/><path class="cls-5" d="m185.05,215.5s2.27,7.05-1.51,7.22"/><path class="cls-5" d="m158.95,224.24l7.11-1.57s.76,1.4-.17,3.44"/><path class="cls-5" d="m145.55,230.24s-2.16,3.55-4.37.52"/><path class="cls-5" d="m161.22,185.73s-.93,10.72,16.66,19.57"/><polyline class="cls-5" points="160.87 168.21 160.87 176.48 152.72 176.48"/><path class="cls-5" d="m187.78,80.18s4.19,55.92-11.01,68.33"/><path class="cls-5" d="m157.9,152s-1.66,6.12-10.14,6.82"/><path class="cls-5" d="m115.26,197.27s.87-.35-5.42-22.19c0,0-2.45-7.17,4.89-16.25"/><path class="cls-5" d="m115.26,54.66s9.79,2.1,10.31,12.58"/><path class="cls-5" d="m145.1,61.26s3.71.57,3.5,4.19"/><path class="cls-5" d="m135.18,77.82s2.18,5.33,11.18,3.58c0,0,8.91,2.1,14.59-5.68"/></g></g></g></svg>