<?xml version="1.0" encoding="UTF-8"?><svg id="Layer_2" xmlns="http://www.w3.org/2000/svg" viewBox="0 0 288.47 288.47"><defs><style>.cls-1,.cls-2,.cls-3{stroke:#6a0d38;}.cls-1,.cls-2,.cls-3,.cls-4,.cls-5{fill:none;stroke-miterlimit:10;}.cls-1,.cls-3{stroke-width:1.54px;}.cls-2{stroke-width:1.51px;}.cls-6{fill:#f68e1e;}.cls-3,.cls-4,.cls-5{stroke-linecap:round;}.cls-4{stroke-width:1.64px;}.cls-4,.cls-5{stroke:#fff;}.cls-5{stroke-width:1.39px;}</style></defs><g id="Layer_1-2"><g><circle class="cls-6" cx="144.24" cy="144.24" r="144.24"/><g><g><g><path class="cls-1" d="m170.16,199.92c.8.69,1.66,1.36,2.59,2.02,1.1.79,2.29,1.55,3.55,2.28,2.55,1.52,5.4,2.95,8.42,4.35,1.49.68,3.01,1.36,4.57,2.02h.01c.07.03.1.05.17.08.6.25,1.21.51,1.81.76.55.24,1.1.46,1.65.69,3.69,1.52,7.48,3.01,11.23,4.55,2.99,1.22,5.94,2.45,8.76,3.73,1,.45,1.98.9,2.95,1.36,2.24,1.07,4.21,2.25,5.92,3.47-4.28,5.03-9.05,9.64-14.24,13.74-17.39,13.8-39.36,22.04-63.27,22.04s-45.12-7.95-62.35-21.3c-5.58-4.32-10.7-9.22-15.28-14.6,1.68-1.18,3.59-2.32,5.75-3.35,2.24-1.07,4.57-2.11,6.96-3.12,2.91-1.24,5.9-2.45,8.87-3.66,3.39-1.36,6.77-2.71,10.04-4.09.08-.04.16-.07.24-.1.71-.31,1.41-.62,2.11-.92.16-.07.31-.14.47-.21.75-.33,1.48-.64,2.2-.98,0,0,12.72-4.16,14.58-6.22"/><path class="cls-1" d="m70.57,222.55s67.82,74.38,146.79.66"/><line class="cls-2" x1="166.07" y1="136.9" x2="173.31" y2="250.33"/><line class="cls-2" x1="114.76" y1="250.33" x2="122.14" y2="136.39"/><path class="cls-1" d="m119.17,179.67s23.86,24.01,49.79-.11"/><path class="cls-1" d="m118.75,188.26s25.05,23.57,50.97-.55"/><path class="cls-1" d="m117.44,202.7s24.61,17.97,53.08-.16"/><path class="cls-1" d="m116.86,212.7s26.01,17.47,54.47-.66"/><path class="cls-1" d="m119.08,203.93l1.18,9.05c.09.72.93,1.06,1.5.62l6.04-4.63c.53-.41,1.31-.14,1.48.51l1.92,7.28c.19.71,1.07.94,1.58.41l5.72-5.9c.45-.46,1.22-.35,1.51.23l3.69,7.26c.34.67,1.29.69,1.66.03l4.16-7.48c.31-.56,1.09-.65,1.52-.17l5.39,5.99c.49.54,1.38.34,1.6-.36l2.37-7.84c.2-.65,1.01-.88,1.52-.43l4.51,3.99c.59.52,1.51.13,1.56-.65l.46-8"/><circle class="cls-1" cx="144.59" cy="239.58" r="14.99"/><path class="cls-5" d="m144.59,226.06c7.47,0,13.52,6.05,13.52,13.52"/></g><path class="cls-1" d="m114.76,250.33c-27.13-12.58-28.49-27.45-29.81-44.85-1.31-17.39-3.45-28.88-10.01-37.74-6.56-8.86-3.94-18.7-3.94-18.7l17.72-60.38"/><path class="cls-1" d="m199.31,88.67l17.72,60.38s2.63,9.84-3.94,18.7c-6.56,8.86-8.7,20.34-10.01,37.74-1.31,17.39-2.68,32.27-29.81,44.85"/><path class="cls-1" d="m185.69,99c5.86-5.86,12.31-9.35,12.31-9.35,17.88-18.7,4.05-59.61,4.05-59.61-7.44-10.72-40.47,27.35-40.47,27.35,0,0-13.13,25.16-30.41,5.03-17.28-20.13-38.5-41.13-43.75-33.25s-10.06,52.07,2.63,59.94c12.69,7.88,12.47,9.63,12.47,9.63,0,0,2.19,1.09,2.19,6.78s-2.84,8.75,4.38,14.66c7.22,5.91,12.03,14,15.75,20.34,3.72,6.34,6.34,11.59,19.91,10.5,13.56-1.09,16.41-4.38,19.25-10.5,2.84-6.12,7.22-12.9,12.25-17.06,3.27-2.7,6-5.69,7.27-9.83.57-1.85.86-3.78.98-5.71.08-1.19.09-2.39.06-3.58-.02-.67-.05-1.33-.09-2-.08-1.26.35-2.43,1.24-3.33Z"/><path class="cls-3" d="m112.46,86.15s4.38,1.09,11.92,1.53,12.03,9.08,12.03,9.08"/><path class="cls-3" d="m111.37,91.62s-1.97,2.95,3.94,4.92c5.91,1.97,22.64,1.64,20.67,17.56"/><path class="cls-3" d="m152.71,114.92s-2.3-7.71,3.94-12.63,19.52-4.76,20.84-10.66"/><path class="cls-3" d="m154.19,94.08s1.97-5.74,10.01-6.73,9.19,1.31,11.98-1.15"/><path class="cls-3" d="m121.29,98.18s-2.71,15.34,8.53,8.37"/><path class="cls-3" d="m166.99,98.43s2.05,14.85-8.29,8.2"/><path class="cls-3" d="m138.49,129.9s-4.27-2.73.22-3.83c0,0,4.27,1.2,8.31.11,4.05-1.09,6.02.88,4.27,2.95"/><path class="cls-3" d="m129.85,140.51s7.83,5.32,13.58-2.12c.37-.48,1.09-.49,1.48-.02,1.82,2.26,7.03,7,15.57,1.04"/><path class="cls-3" d="m120.66,50.82s18.59-9.84,48.13-1.53"/><line class="cls-3" x1="83.91" y1="106.17" x2="104.04" y2="109.89"/><line class="cls-3" x1="79.78" y1="119.18" x2="112.19" y2="123.45"/><line class="cls-3" x1="76.26" y1="131.32" x2="120.88" y2="136.98"/><line class="cls-1" x1="71.33" y1="149.37" x2="120.63" y2="156.03"/><line class="cls-1" x1="78.88" y1="173.98" x2="119.34" y2="176.87"/><line class="cls-1" x1="84.79" y1="200.4" x2="117.88" y2="202.46"/><line class="cls-1" x1="87.08" y1="219.92" x2="115.96" y2="221.56"/><line class="cls-1" x1="171.86" y1="220.14" x2="201.39" y2="218.39"/><line class="cls-1" x1="169.89" y1="190.39" x2="204.67" y2="188.2"/><line class="cls-1" x1="168.35" y1="163.7" x2="216.92" y2="158.23"/><line class="cls-1" x1="166.76" y1="147.41" x2="213.64" y2="140.07"/><line class="cls-1" x1="180.17" y1="119.51" x2="206.2" y2="114.04"/></g><path class="cls-1" d="m184.46,100.72s-1.39-5.58-.98-7.47,8.61-6.15,12.06-8.2c3.45-2.05,10.42-11.65,5.99-40.94-4.43-29.29-30.68,11.98-32.16,19.11-1.48,7.14-.49,20.76,14.93,13.54,0,0-5.58,2.46-5.5,5.41,0,0,6.81-4.1,9.43-2.87,0,0-8.91-.03-4.81,14.66"/><path class="cls-1" d="m104.15,101.96s3.94-9.02-3.45-12.8c-7.38-3.77-17.72-3.77-13.95-43.48,3.77-39.71,41.51,26.74,32.49,29.86-.11.04-.28.34-.36.42-.33.37-.69.71-1.07,1.03-1.17.99-2.53,1.79-4,2.21-1.62.46-3.33.39-4.94-.09-.78-.23-1.57-.42-2.32-.75-.39-.17-.76-.39-1.11-.62-.18-.12-.53-.25-.61-.47-.12-.34.07-.39.36-.34.38.07.68.52.94.77.82.79,1.63,1.58,2.44,2.38.49.49,1.02,1.12.84,1.78-.17.62-.9.92-1.54.91-1.08-.02-2.06-.63-2.88-1.34-.93-.81-1.75-1.79-2.87-2.34,1.03.51,2.05.83,2.84,1.73s1.32,2.14,1.51,3.37c.57,3.84-.35,7.91-1.34,11.6"/><path class="cls-4" d="m125.19,50.18s19.22-6.29,40.72-.17"/><path class="cls-4" d="m155.25,258.84s36.7-1.75,64.31-33.9"/><path class="cls-4" d="m193.99,233.45s4.08-4.89,5.71-13.4l-11.77.58"/><path class="cls-4" d="m203.72,186.79s2.21-12.82,7.46-18.64c5.24-5.83,4.66-9.55,4.66-9.55"/><line class="cls-4" x1="212.22" y1="138.61" x2="205.64" y2="115.83"/><line class="cls-4" x1="204.71" y1="112.51" x2="198.59" y2="90.44"/><path class="cls-4" d="m197.89,37.43s8.04,27.44-1.75,45.26"/><path class="cls-4" d="m182.69,102.26s3.84,10.83-8.56,21.5c-12.41,10.66-11.88,17.83-11.88,17.83"/><path class="cls-4" d="m169,201.52s-10.25,7.46-20.16,7.11"/><path class="cls-4" d="m149.92,196.81s9.96-1.83,18-9.52l-.35-4.63"/></g><path class="cls-4" d="m90.19,90.9s13.17,6.76,12.93,13.4"/><path class="cls-4" d="m71.96,150.88s-1.05,8.04,3.15,14.5,4.46,7.25,4.46,7.25"/><path class="cls-4" d="m84.1,232.84s-8.54-6.74-11.26-9.4c-.27-.26-.19-.71.16-.85l11.1-4.77"/></g></g></svg>