<?xml version="1.0" encoding="UTF-8"?><svg id="Layer_2" xmlns="http://www.w3.org/2000/svg" viewBox="0 0 537.11 10.56"><defs><style>.cls-1{fill:#f0891e;}</style></defs><g id="Layer_1-2"><g><g><path class="cls-1" d="m516.62,5.29c17.87,11.82,20.49.07,20.49.07-3.64-12.01-20.49-.07-20.49-.07Zm15.7.56c-.38,0-.68-.25-.68-.57,0-.31.31-.56.68-.56.38,0,.68.25.68.57,0,.31-.31.56-.68.56Zm-1.91-.55c-8.2,3.51-9.35-.03-9.35-.03,1.71-3.6,9.35.03,9.35.03Z"/><path class="cls-1" d="m515.29,3.67c-1.04,0-1.89.69-1.89,1.55h0c0,.86.84,1.56,1.88,1.56h0c1.04,0,1.89-.69,1.89-1.55h0c0-.86-.84-1.56-1.88-1.56h0Z"/><path class="cls-1" d="m500.83,3.63c-1.04,0-1.89.69-1.89,1.55h0c0,.86.84,1.56,1.88,1.56h0c1.04,0,1.89-.69,1.89-1.55h0c0-.86-.84-1.56-1.88-1.56h0Z"/><path class="cls-1" d="m508.05,1.08s6.44,4.12,6.39,4.15c.06.02-6.43,4.1-6.43,4.1-.75-1.35-6.42-4.14-6.41-4.15-.09-.04,5.69-2.76,6.45-4.1Z"/><path class="cls-1" d="m0,5.29s1.7,7.65,13.34-.04c0,0-10.97-7.78-13.34.04Zm2.68-.04c0-.2.2-.37.44-.37.25,0,.44.16.45.37,0,.2-.2.37-.44.37-.25,0-.44-.16-.45-.37Zm7.78-.02s-.75,2.3-6.09.02c0,0,4.98-2.36,6.09-.02Z"/><path class="cls-1" d="m14.2,4.2c.68,0,1.23.45,1.23,1.01h0c0,.56-.54,1.02-1.22,1.02h0c-.68,0-1.23-.45-1.23-1.01h0c0-.56.54-1.02,1.22-1.02h0Z"/></g><rect class="cls-1" x="15.44" y="4.63" width="484.83" height="1.1"/></g></g></svg>