<?xml version="1.0" encoding="UTF-8"?><svg id="Layer_2" xmlns="http://www.w3.org/2000/svg" viewBox="0 0 536.64 10.56"><defs><style>.cls-1{fill:#f0891e;}</style></defs><g id="Layer_1-2"><g><g><path class="cls-1" d="m0,5.35s2.62,11.75,20.49-.07c0,0-16.85-11.94-20.49.07Zm4.11-.07c0-.31.3-.56.68-.57.38,0,.68.25.68.56,0,.31-.3.56-.68.57s-.68-.25-.68-.56Zm11.95-.02s-1.15,3.54-9.35.03c0,0,7.65-3.63,9.35-.03Z"/><path class="cls-1" d="m21.81,3.67c1.04,0,1.89.69,1.89,1.55h0c0,.86-.84,1.56-1.88,1.56h0c-1.04,0-1.89-.69-1.89-1.55h0c0-.86.84-1.56,1.88-1.56h0Z"/><path class="cls-1" d="m36.28,3.63c1.04,0,1.89.69,1.89,1.55h0c0,.86-.84,1.56-1.88,1.56h0c-1.04,0-1.89-.69-1.89-1.55h0c0-.86.84-1.56,1.88-1.56h0Z"/><path class="cls-1" d="m29.05,1.08s-6.44,4.12-6.39,4.15c-.06.02,6.43,4.1,6.43,4.1.75-1.35,6.42-4.14,6.41-4.15.09-.04-5.69-2.76-6.45-4.1Z"/><path class="cls-1" d="m523.3,5.25c11.64,7.7,13.34.04,13.34.04-2.37-7.82-13.34-.04-13.34-.04Zm10.22.37c-.25,0-.44-.17-.44-.37,0-.2.2-.37.45-.37.25,0,.44.17.44.37,0,.2-.2.37-.45.37Zm-1.25-.36c-5.34,2.28-6.09-.02-6.09-.02,1.11-2.34,6.09.02,6.09.02Z"/><path class="cls-1" d="m522.43,4.2c-.68,0-1.23.45-1.23,1.01h0c0,.56.54,1.02,1.22,1.02h0c.68,0,1.23-.45,1.23-1.01h0c0-.56-.54-1.02-1.22-1.02h0Z"/></g><rect class="cls-1" x="35.86" y="4.63" width="485.34" height="1.1"/></g></g></svg>