<?xml version="1.0" encoding="UTF-8"?><svg id="Layer_2" xmlns="http://www.w3.org/2000/svg" viewBox="0 0 279.96 111.06"><defs><style>.cls-1{fill:#fff;}.cls-2{fill:#f0891e;}</style></defs><g id="Layer_1-2"><g><path class="cls-2" d="m76.85,23.18c-.68,1.21-1.3,2.46-1.86,3.74-.11.24.03.52.28.6l3.67,1.08c.21.06.42-.04.52-.24.4-.87.83-1.72,1.29-2.56.11-.19.05-.43-.13-.56l-3.12-2.19c-.21-.15-.51-.08-.64.14m10.42-12.63c-.96.81-1.89,1.65-2.78,2.54-.18.17-.17.46.01.63l2.77,2.59c.17.16.43.15.6-.01.68-.68,1.39-1.33,2.12-1.95.17-.15.2-.39.08-.58l-2.17-3.13c-.15-.21-.45-.25-.64-.09m14.23-8.11c-1.11.38-2.21.81-3.28,1.29-.23.1-.33.38-.21.61l1.74,3.37c.11.2.35.29.56.2.81-.35,1.63-.67,2.46-.97.22-.08.34-.3.28-.52l-.98-3.67c-.07-.25-.33-.39-.57-.3m14.54-2.44c-.64,0-1.28.01-1.91.04-.25.01-.44.23-.42.48l.34,3.78c.02.23.22.4.45.39.51-.02,1.02-.03,1.54-.03.42,0,.84,0,1.25.02.23,0,.42-.16.45-.39l.41-3.78c.03-.25-.16-.48-.42-.49-.56-.02-1.13-.03-1.7-.03m12.89,2.39l-.92,3.68c-.06.22.07.45.29.52.81.26,1.61.55,2.4.86.21.08.45-.01.55-.22l1.61-3.44c.11-.23,0-.5-.23-.6-1.03-.41-2.08-.78-3.14-1.12-.24-.08-.5.07-.56.32m13.43,6.75l-2.18,3.1c-.13.19-.09.45.09.6.72.54,1.41,1.1,2.08,1.69.18.15.45.14.6-.03l2.56-2.8c.16-.18.15-.47-.03-.63-.81-.71-1.65-1.39-2.51-2.03-.2-.15-.48-.1-.62.1m10.33,10.69l-3.01,2.31c-.18.14-.22.39-.1.58.44.67.87,1.35,1.27,2.04.11.19.35.27.55.18l3.48-1.55c.24-.11.33-.4.2-.62-.56-.97-1.15-1.92-1.78-2.84-.14-.21-.43-.25-.63-.1m6.37,13.72l-3.63,1.13c-.22.07-.35.3-.29.52.23.87.42,1.76.58,2.65.04.22.24.37.47.36l3.8-.35c.26-.02.44-.26.4-.52-.21-1.18-.46-2.34-.76-3.48-.06-.24-.32-.38-.56-.31m1.4,7.74l-3.78.35c-.24.02-.41.23-.39.46.06.74.1,2.09.12,2.87,0,.33.28.59.61.59h3.45c.34,0,.61-.28.61-.62-.02-.86-.06-2.41-.13-3.26-.02-.24-.23-.42-.48-.4m-3.95-14.82l-3.46,1.54c-.22.1-.32.36-.22.58.37.82.72,1.67,1.04,2.52.08.22.31.33.53.27l3.62-1.12c.24-.07.37-.34.29-.57-.37-1.02-.78-2.01-1.22-2.99-.1-.22-.36-.32-.58-.22m-8.5-12.36l-2.56,2.8c-.15.17-.15.42,0,.59.53.58,1.05,1.17,1.56,1.78.15.18.41.21.6.07l3.01-2.3c.2-.15.23-.44.07-.63-.65-.8-1.34-1.57-2.04-2.32-.18-.18-.47-.18-.64,0m-12-8.89l-1.6,3.44c-.1.21-.01.46.2.57.72.38,1.43.78,2.13,1.2.2.12.45.07.58-.12l2.18-3.11c.15-.21.09-.49-.13-.63-.9-.55-1.82-1.07-2.76-1.56-.22-.12-.5-.02-.6.21m-14.39-4.42l-.41,3.77c-.03.23.14.44.37.48.87.12,1.72.26,2.58.44.23.05.45-.09.51-.32l.91-3.68c.06-.24-.09-.49-.33-.54-1.03-.22-2.07-.4-3.13-.55-.24-.03-.47.14-.5.39m-11.85-.36c-1.37.19-2.72.45-4.06.77-.24.06-.38.3-.32.54l.98,3.67c.06.23.29.36.52.31,1.1-.26,2.21-.48,3.34-.64.23-.03.39-.24.37-.47l-.34-3.78c-.02-.25-.25-.43-.5-.4m-15.46,5.23c-1.22.68-2.4,1.42-3.55,2.21-.2.14-.25.41-.11.61l2.17,3.11c.14.2.41.24.6.11.99-.68,2.01-1.32,3.06-1.91.2-.11.28-.37.17-.58l-1.74-3.37c-.11-.22-.39-.3-.61-.18m-12.76,10.65c-.83,1.01-1.62,2.06-2.37,3.14-.14.2-.09.47.11.61l3.11,2.18c.2.14.47.09.6-.11.63-.92,1.3-1.81,2.01-2.67.15-.18.13-.43-.04-.59l-2.78-2.59c-.18-.17-.48-.15-.64.04m-8.14,14.7c-.43,1.31-.81,2.63-1.12,3.99-.06.27.15.54.43.54h3.9c.2,0,.37-.13.42-.33.25-.96.53-1.92.84-2.85.08-.23-.05-.49-.29-.56l-3.65-1.07c-.23-.07-.47.06-.54.28"/><path class="cls-1" d="m5.52,81.91l-3.47,1.17c-.34.11-.71-.08-.8-.42-.35-1.32-.62-2.67-.83-4.05-.06-.37.24-.7.61-.7h3.69c.3,0,.55.22.6.51.15.93.35,1.86.58,2.76.08.31-.09.63-.39.73"/><path class="cls-1" d="m8.43,89.11l-3.09,1.95c-.3.19-.7.09-.87-.23-.62-1.16-1.18-2.36-1.68-3.59-.13-.33.04-.7.38-.82l3.46-1.17c.31-.1.64.05.76.35.38.92.8,1.82,1.26,2.7.15.28.06.63-.21.8"/><path class="cls-1" d="m12.83,95.38l-2.59,2.59c-.25.25-.67.24-.9-.03-.83-.96-1.61-1.95-2.35-2.99-.2-.29-.12-.69.18-.88l3.09-1.95c.28-.17.63-.1.82.17.55.78,1.14,1.53,1.77,2.26.21.24.2.6-.03.83"/><path class="cls-1" d="m16.13,97.88c.69.61,1.4,1.19,2.14,1.74.25.18.32.52.17.79l-1.83,3.18c-.18.31-.6.41-.89.19-1.03-.75-2.02-1.55-2.97-2.4-.26-.23-.27-.65-.02-.89l2.58-2.58c.23-.23.59-.24.84-.02"/><path class="cls-1" d="m22.2,102.14c.85.47,1.73.9,2.63,1.29.3.13.45.46.34.76l-1.2,3.45c-.12.34-.5.51-.82.37-1.15-.49-2.27-1.04-3.36-1.64-.3-.16-.41-.55-.23-.85l1.82-3.16c.17-.29.53-.39.83-.23"/><path class="cls-1" d="m29.24,104.99c1.02.29,2.07.52,3.13.71.32.06.54.35.5.68l-.44,3.62c-.04.35-.37.59-.72.53-1.36-.23-2.7-.53-4-.91-.34-.1-.53-.46-.41-.8l1.2-3.45c.1-.31.43-.47.74-.39"/><path class="cls-1" d="m40.72,106.65l.52,3.62c.05.35-.21.68-.56.7-.87.06-1.74.09-2.62.09-.52,0-1.03-.01-1.54-.03-.36-.01-.62-.34-.58-.69l.44-3.63c.04-.32.31-.55.63-.54.35,0,.7.02,1.05.02.68,0,1.35-.02,2.02-.06.32-.02.6.21.64.52"/><path class="cls-1" d="m48.53,105.09l1.27,3.43c.12.33-.06.7-.39.8-1.29.4-2.61.74-3.95,1-.35.07-.68-.17-.73-.52l-.52-3.61c-.05-.32.17-.62.49-.69,1.04-.21,2.07-.48,3.07-.79.31-.1.64.06.76.37"/><path class="cls-1" d="m55.71,101.75l2.09,3c.2.29.12.7-.18.88-1.19.72-2.42,1.37-3.7,1.95-.32.15-.71-.01-.83-.35l-1.26-3.43c-.11-.3.03-.63.32-.76.94-.44,1.86-.93,2.75-1.46.28-.16.63-.09.82.17"/><path class="cls-1" d="m61.91,96.84l2.75,2.42c.27.24.28.65.03.9-.98.96-2.02,1.87-3.1,2.72-.28.22-.68.15-.89-.14l-2.09-3c-.18-.27-.13-.63.13-.83.81-.65,1.59-1.34,2.34-2.06.23-.22.59-.23.83-.02"/><path class="cls-1" d="m66.5,91.06l3.33,1.6c.33.16.46.58.26.89-.67,1.05-1.4,2.06-2.17,3.04-.22.28-.63.31-.89.08l-2.75-2.42c-.24-.22-.27-.58-.07-.84.54-.68,1.05-1.39,1.53-2.12.17-.26.5-.35.77-.22"/><path class="cls-1" d="m69.7,84.6l3.58.85c.36.08.56.46.44.81-.38,1.04-.81,2.06-1.28,3.05-.15.3-.52.43-.82.29l-3.3-1.58c-.31-.15-.43-.51-.28-.82.35-.73.67-1.47.96-2.22.11-.29.41-.45.71-.38"/><path class="cls-1" d="m71.4,77.84h3.7c.37,0,.67.33.61.7-.15,1.05-.35,2.08-.59,3.1-.08.33-.41.53-.74.45l-3.55-.84c-.33-.08-.53-.41-.45-.74.17-.71.31-1.43.43-2.15.05-.3.3-.52.6-.52"/><path class="cls-1" d="m0,40.66c0-1.1.55-1.65,1.65-1.65h11.27c1.6,0,3.09.26,4.46.78,1.37.52,2.54,1.26,3.51,2.23.97.97,1.73,2.14,2.28,3.51.55,1.37.83,2.89.83,4.56s-.28,3.2-.83,4.58c-.55,1.39-1.31,2.57-2.28,3.56-.97.99-2.14,1.75-3.51,2.28-1.37.53-2.85.8-4.46.8H4.91v11.42c0,1.1-.55,1.65-1.65,1.65h-1.6c-1.1,0-1.65-.55-1.65-1.65v-32.06Zm12.12,16.33c2.14,0,3.82-.62,5.04-1.85,1.22-1.23,1.83-2.92,1.83-5.06s-.61-3.8-1.83-4.99c-1.22-1.19-2.88-1.78-4.99-1.78h-7.26v13.68h7.21Z"/><path class="cls-1" d="m26.4,67.46c0-1.3.25-2.43.75-3.38.5-.95,1.17-1.74,2-2.38.83-.63,1.78-1.15,2.83-1.55,1.05-.4,2.15-.7,3.28-.9,1.14-.2,2.25-.33,3.33-.4,1.08-.07,2.06-.1,2.93-.1h1.3v-.65c0-1.03-.14-1.91-.43-2.63-.29-.72-.68-1.29-1.18-1.73-.5-.43-1.09-.74-1.75-.93-.67-.18-1.39-.28-2.15-.28-1.27,0-2.4.18-3.38.55-.99.37-1.76.72-2.33,1.05-.97.47-1.72.27-2.25-.6l-.4-.7c-.53-1-.35-1.75.55-2.26.77-.43,1.85-.9,3.23-1.4,1.38-.5,3.05-.75,4.99-.75,3.17,0,5.63.84,7.36,2.53,1.74,1.69,2.6,4.15,2.6,7.39v14.38c0,1.1-.55,1.65-1.65,1.65h-1.25c-1.1,0-1.65-.55-1.65-1.65v-2.15c0-.2.02-.37.05-.5.03-.13.07-.27.1-.4h-.1c-.5,1-1.14,1.89-1.9,2.66-.67.67-1.52,1.28-2.56,1.83-1.04.55-2.3.83-3.81.83-1.1,0-2.17-.17-3.21-.5-1.03-.33-1.95-.83-2.73-1.48-.79-.65-1.41-1.44-1.88-2.35-.47-.92-.7-1.98-.7-3.18m4.91-.4c0,1,.39,1.93,1.18,2.78.78.85,1.96,1.28,3.53,1.28,1.07,0,2.03-.24,2.88-.73.85-.48,1.57-1.12,2.15-1.9.58-.79,1.03-1.65,1.35-2.61.32-.95.48-1.9.48-2.83v-1.1h-1.3c-.9,0-1.94.04-3.11.13-1.17.08-2.29.29-3.36.63-1.07.33-1.97.84-2.71,1.53-.74.68-1.1,1.63-1.1,2.83"/><path class="cls-1" d="m55.26,53.24h-1.75c-1.07,0-1.6-.55-1.6-1.65v-.65c0-1.1.55-1.65,1.65-1.65h1.8v-5.56c0-1.1.55-1.65,1.65-1.65h1.45c1.1,0,1.65.55,1.65,1.65v5.56h4.41c1.1,0,1.65.55,1.65,1.65v.65c0,1.1-.53,1.65-1.6,1.65h-4.46v11.27c0,1.2.17,2.17.5,2.91.33.73.74,1.3,1.23,1.7.48.4,1,.68,1.55.83.55.15,1.06.24,1.53.27.67.07,1.13.22,1.38.45s.38.63.38,1.2v1.05c0,1.1-.67,1.65-2,1.65s-2.47-.18-3.61-.55c-1.14-.37-2.13-.93-2.98-1.7-.85-.77-1.54-1.74-2.06-2.91-.52-1.17-.78-2.56-.78-4.16v-12.02Z"/><path class="cls-1" d="m71.24,40.66c0-1.1.55-1.65,1.65-1.65h1.55c1.07,0,1.6.55,1.6,1.65v11.47c0,.3,0,.58-.03.85-.02.27-.04.48-.08.65-.03.23-.05.44-.05.6h.1c.27-.6.68-1.24,1.23-1.93.55-.68,1.23-1.32,2.03-1.9.8-.58,1.72-1.06,2.76-1.43,1.03-.37,2.19-.55,3.46-.55,3.01,0,5.21.81,6.61,2.43,1.4,1.62,2.1,4.05,2.1,7.29v14.58c0,1.1-.55,1.65-1.65,1.65h-1.55c-1.1,0-1.65-.55-1.65-1.65v-13.48c0-.9-.06-1.74-.18-2.51-.12-.77-.35-1.44-.7-2-.35-.57-.84-1.02-1.48-1.35-.63-.33-1.45-.5-2.45-.5-1.2,0-2.32.23-3.36.7-1.04.47-1.93,1.13-2.68,1.98-.75.85-1.34,1.85-1.78,3.01-.44,1.15-.65,2.41-.65,3.78v10.37c0,1.1-.53,1.65-1.6,1.65h-1.55c-1.1,0-1.65-.55-1.65-1.65v-32.06Z"/><path class="cls-2" d="m101.55,40.66c0-1.1.55-1.65,1.65-1.65h16.18c1.1,0,1.65.55,1.65,1.65v1c0,1.1-.55,1.65-1.65,1.65h-12.93v11.62h10.72c1.1,0,1.65.55,1.65,1.65v1c0,1.1-.55,1.65-1.65,1.65h-10.72v13.48c0,1.1-.55,1.65-1.65,1.65h-1.6c-1.1,0-1.65-.55-1.65-1.65v-32.06Z"/><path class="cls-2" d="m123.6,61.65c0-1.9.36-3.67,1.08-5.29.72-1.62,1.69-3.02,2.91-4.21,1.22-1.19,2.65-2.1,4.31-2.75,1.65-.65,3.43-.98,5.34-.98s3.68.32,5.33.98c1.65.65,3.1,1.57,4.33,2.75,1.24,1.19,2.21,2.59,2.93,4.21.72,1.62,1.08,3.38,1.08,5.29s-.36,3.72-1.08,5.34c-.72,1.62-1.69,3.02-2.93,4.21-1.24,1.19-2.68,2.11-4.33,2.78-1.65.67-3.43,1-5.33,1s-3.68-.33-5.34-1c-1.65-.67-3.09-1.6-4.31-2.78-1.22-1.19-2.19-2.59-2.91-4.21-.72-1.62-1.08-3.4-1.08-5.34m4.91,0c0,1.34.23,2.56.7,3.68.47,1.12,1.1,2.08,1.88,2.88.78.8,1.7,1.43,2.75,1.88,1.05.45,2.18.68,3.38.68s2.33-.23,3.38-.68c1.05-.45,1.98-1.08,2.78-1.88.8-.8,1.43-1.76,1.88-2.88.45-1.12.68-2.35.68-3.68s-.22-2.51-.68-3.61c-.45-1.1-1.08-2.06-1.88-2.86-.8-.8-1.73-1.43-2.78-1.88-1.05-.45-2.18-.68-3.38-.68s-2.33.23-3.38.68c-1.05.45-1.97,1.08-2.75,1.88-.79.8-1.41,1.75-1.88,2.86-.47,1.1-.7,2.3-.7,3.61"/><path class="cls-2" d="m156.26,50.68c0-1.1.55-1.65,1.65-1.65h1.4c1.1,0,1.65.55,1.65,1.65v2.91c0,.27,0,.52-.02.75-.02.23-.04.43-.08.6-.03.2-.05.38-.05.55h.1c.27-.83.64-1.65,1.13-2.45.48-.8,1.06-1.51,1.73-2.13.67-.62,1.41-1.12,2.23-1.5.82-.38,1.71-.58,2.68-.58,1.07,0,1.6.55,1.6,1.65v1.4c0,1.1-.6,1.65-1.8,1.65s-2.31.31-3.23.93c-.92.62-1.69,1.41-2.31,2.38-.62.97-1.08,2.08-1.38,3.33-.3,1.25-.45,2.5-.45,3.73v8.82c0,1.1-.55,1.65-1.65,1.65h-1.55c-1.1,0-1.65-.55-1.65-1.65v-22.04Z"/><path class="cls-2" d="m171.74,50.88c-.17-.57-.12-1.02.12-1.35.25-.33.68-.5,1.28-.5h1.65c1,0,1.62.47,1.85,1.4l4.96,16.38c.07.33.14.66.23.98.08.32.16.61.23.88.07.3.12.58.15.85h.1c.03-.27.1-.55.2-.85.06-.27.14-.56.22-.88.08-.32.18-.64.28-.98l5.11-16.33c.2-.93.8-1.4,1.8-1.4h1.55c1,0,1.62.47,1.85,1.4l5.11,16.33c.07.33.14.66.23.98.08.32.16.61.23.88.07.3.13.58.2.85h.1c.03-.27.08-.55.15-.85.06-.27.14-.56.23-.88.08-.32.18-.64.27-.98l4.96-16.38c.2-.93.8-1.4,1.8-1.4h1.65c.6,0,1.03.17,1.28.5.25.33.29.79.13,1.35l-7.16,22.09c-.23.94-.85,1.4-1.85,1.4h-2.45c-1,0-1.62-.47-1.85-1.4l-4.86-14.88c-.14-.33-.23-.66-.3-.98-.07-.32-.13-.61-.2-.88-.07-.3-.13-.6-.2-.9h-.1c-.03.3-.1.6-.2.9-.07.27-.15.56-.25.88-.1.32-.2.64-.3.98l-4.81,14.88c-.23.94-.85,1.4-1.85,1.4h-2.51c-1,0-1.62-.47-1.85-1.4l-7.17-22.09Z"/><path class="cls-2" d="m212.27,67.46c0-1.3.25-2.43.75-3.38.5-.95,1.17-1.74,2-2.38.84-.63,1.78-1.15,2.83-1.55,1.05-.4,2.14-.7,3.28-.9,1.14-.2,2.25-.33,3.33-.4,1.09-.07,2.06-.1,2.93-.1h1.3v-.65c0-1.03-.14-1.91-.43-2.63-.29-.72-.68-1.29-1.18-1.73-.5-.43-1.09-.74-1.75-.93-.67-.18-1.39-.28-2.15-.28-1.27,0-2.4.18-3.38.55-.98.37-1.76.72-2.33,1.05-.97.47-1.72.27-2.25-.6l-.4-.7c-.54-1-.35-1.75.55-2.26.77-.43,1.85-.9,3.23-1.4,1.39-.5,3.05-.75,4.99-.75,3.17,0,5.63.84,7.36,2.53,1.74,1.69,2.61,4.15,2.61,7.39v14.38c0,1.1-.55,1.65-1.65,1.65h-1.25c-1.1,0-1.65-.55-1.65-1.65v-2.15c0-.2.02-.37.05-.5.03-.13.07-.27.1-.4h-.1c-.5,1-1.14,1.89-1.9,2.66-.67.67-1.52,1.28-2.56,1.83-1.03.55-2.3.83-3.81.83-1.1,0-2.17-.17-3.21-.5-1.04-.33-1.95-.83-2.73-1.48-.79-.65-1.41-1.44-1.88-2.35-.47-.92-.7-1.98-.7-3.18m4.91-.4c0,1,.39,1.93,1.18,2.78.78.85,1.96,1.28,3.53,1.28,1.07,0,2.03-.24,2.88-.73.85-.48,1.57-1.12,2.15-1.9.58-.79,1.04-1.65,1.35-2.61.32-.95.48-1.9.48-2.83v-1.1h-1.3c-.9,0-1.94.04-3.11.13-1.17.08-2.29.29-3.36.63-1.07.33-1.97.84-2.71,1.53-.73.68-1.1,1.63-1.1,2.83"/><path class="cls-2" d="m240.23,50.68c0-1.1.55-1.65,1.65-1.65h1.4c1.1,0,1.65.55,1.65,1.65v2.91c0,.27,0,.52-.03.75-.02.23-.04.43-.07.6-.03.2-.05.38-.05.55h.1c.27-.83.64-1.65,1.13-2.45.48-.8,1.06-1.51,1.73-2.13.67-.62,1.41-1.12,2.23-1.5.82-.38,1.71-.58,2.68-.58,1.07,0,1.6.55,1.6,1.65v1.4c0,1.1-.6,1.65-1.8,1.65s-2.31.31-3.23.93c-.92.62-1.69,1.41-2.31,2.38-.62.97-1.08,2.08-1.38,3.33-.3,1.25-.45,2.5-.45,3.73v8.82c0,1.1-.55,1.65-1.65,1.65h-1.55c-1.1,0-1.65-.55-1.65-1.65v-22.04Z"/><path class="cls-2" d="m255.81,61.7c0-2,.28-3.82.85-5.46.57-1.64,1.36-3.03,2.38-4.18,1.02-1.15,2.23-2.04,3.63-2.68s2.94-.95,4.61-.95c1.47,0,2.7.22,3.68.68.99.45,1.79.96,2.43,1.53.73.63,1.32,1.35,1.76,2.15h.1c-.03-.17-.07-.33-.1-.5-.03-.17-.05-.34-.05-.53v-11.1c0-1.1.55-1.65,1.65-1.65h1.55c1.1,0,1.65.55,1.65,1.65v32.06c0,1.1-.55,1.65-1.65,1.65h-1.3c-1.1,0-1.65-.52-1.65-1.55v-1.45c0-.43.01-.73.05-.9,0-.13.02-.25.05-.35h-.1c-.47.93-1.09,1.75-1.85,2.45-.67.6-1.53,1.15-2.58,1.65-1.05.5-2.36.75-3.93.75-1.7,0-3.25-.33-4.64-.98-1.39-.65-2.56-1.56-3.53-2.73-.97-1.17-1.71-2.56-2.23-4.18-.52-1.62-.78-3.41-.78-5.38m4.96.03c0,1.37.17,2.61.53,3.72.35,1.12.84,2.07,1.48,2.85.63.78,1.39,1.39,2.25,1.82.87.43,1.84.65,2.91.65.93,0,1.84-.18,2.73-.53.88-.35,1.66-.89,2.33-1.62.67-.73,1.21-1.67,1.63-2.82.42-1.15.63-2.52.63-4.12,0-1.13-.15-2.23-.45-3.3-.3-1.07-.75-2.01-1.35-2.85-.6-.83-1.35-1.51-2.25-2.02-.9-.52-1.95-.77-3.16-.77-1,0-1.94.2-2.81.6-.87.4-1.64.98-2.3,1.75-.67.77-1.19,1.71-1.58,2.82-.38,1.12-.58,2.39-.58,3.82"/></g></g></svg>