<?xml version="1.0" encoding="UTF-8"?><svg id="Layer_2" xmlns="http://www.w3.org/2000/svg" viewBox="0 0 288.47 288.47"><defs><style>.cls-1,.cls-2,.cls-3{fill:none;}.cls-2{stroke:#6a0d38;stroke-width:1.62px;}.cls-2,.cls-3{stroke-linecap:round;stroke-miterlimit:10;}.cls-4{fill:#f68e1e;}.cls-3{stroke:#fff;stroke-width:1.61px;}</style></defs><g id="Layer_1-2"><g><circle class="cls-4" cx="144.24" cy="144.24" r="144.24"/><g><g><path class="cls-2" d="m221.9,190.62c-8-3.57-53.84-27.23-55.19-31.29-1.35-4.07-1.11-22.54-1.11-22.54,11.71-11.96,15.52-34.87,15.52-34.87-1.35-5.04-.37-16.75-.37-16.75-26.86-5.17-37.08-25.01-37.08-25.01-12.19,21.56-36.59,25.51-36.59,25.51,1.48,6.77-.61,17.62-.61,17.62.49,14.78,14.85,33.63,14.85,33.63,1.29,7.76,0,23.29-3.51,25.88-1.62,1.18-10.35,5.9-20.33,11.09-3.87,2.02-7.92,4.1-11.82,6.08-7.88,4.02-15.12,7.59-18.85,9.25-10.34,4.62-13.48,12.38-13.48,12.38-2.22,12.93,8.46,23.85,8.46,23.85,4.84,5.68,10.26,10.86,16.16,15.44,18.22,14.12,41.09,22.52,65.93,22.52s48.52-8.71,66.91-23.31c5.48-4.34,10.52-9.21,15.06-14.53,0,0,9.51-9.69,9.63-16.34.13-6.65-5.54-15.03-13.56-18.6Zm-78.78,19.28l-4.25-10.35,4.06-5.35,5.18,4.99-4.99,10.71Z"/><path class="cls-2" d="m85.65,179.9s-1.66,58.64,57.84,82.67c0,0,53.41-14.04,57.66-81.87"/><path class="cls-2" d="m92.86,176.45s5.17,51.93,23.47,69.48"/><path class="cls-2" d="m194.31,176.63s-4.07,46.2-22.36,69.11"/><path class="cls-2" d="m107.83,168.69s12.38,19.77,35.11,25.5c0,0,23.28-3.88,35.85-26.06"/><polygon class="cls-2" points="148.12 199.18 143.12 209.89 138.87 199.54 142.93 194.19 148.12 199.18"/><path class="cls-2" d="m98.77,173.31s.37,38.44,44.54,49.16c0,0,45.09-9.24,43.98-49.53"/><path class="cls-2" d="m97.48,173.68s-1.66,56.55,46.2,70.41c0,0,45.64-8.5,45.64-70.22"/><path class="cls-1" d="m85.47,188.64s-8.87,22.18-27.53,31.05"/><path class="cls-2" d="m109.49,116.76s-13.67,43.43-43.43,72.44"/><path class="cls-2" d="m115.77,129.32s-.55,22.18-15.89,42.87"/><path class="cls-2" d="m171.21,129.51s4.8,28.27,15.34,42.32"/><path class="cls-2" d="m177.31,116.57s21.81,54.15,45.64,73.92"/><path class="cls-2" d="m121.87,137.18s7.76,7.3,21.44,11.83c0,0,7.67-.09,21.62-11.64"/><path class="cls-2" d="m136.84,135.7s5.08,2.77,13.86.09"/><path class="cls-2" d="m132.41,131.17s1.94,1.48,5.82.09c3.88-1.39,9.7-1.29,11.18-.28,1.48,1.02,4.99,1.29,5.91.37"/><path class="cls-2" d="m139.89,115.09s-.74,3.7-.37,4.8,5.45,4.53,9.15.18c0,0-.18-2.86-1.11-5.82"/><path class="cls-2" d="m150.24,92.27s9.42-10.16,28.27-7.11"/><path class="cls-2" d="m111.71,84.7s16.08-2.77,26.61,8.22"/><path class="cls-2" d="m171.03,93.01s-13.03-1.94-18.57,7.58c0,0,20.42,6.56,22.64-6.01"/><path class="cls-2" d="m119.38,92.83s11.73-.37,16.26,7.85c0,0-8.59,3.88-18.39-.09,0,0-3.7-1.39-4.53-6.56"/><path class="cls-2" d="m108.94,116.3s-11.83-3.14-11.92-19.03c0,0-8.59-6.75-3.7-28.46,0,0,1.66-.28,2.86.28,0,0-6.56-18.29,5.45-26.98,0,0,1.85,1.48,2.4,2.31,0,0,1.02-15.43,19.4-16.91,0,0,1.02.65,1.2,1.02,0,0,6.1-4.62,15.52-3.14,0,0-1.2,6.38-8.32,13.21,0,0,3.05,9.61-1.57,15.15,0,0-2.31,1.2-2.77,3.88s2.31,22.58-20.6,26.55c0,0-.46-7.15-10.35-14.54"/><path class="cls-2" d="m93.69,69.26s4.8,25.04,12.47,34"/><path class="cls-2" d="m97.29,97.63s2.4,3.05,8.64,5.73"/><path class="cls-2" d="m101.54,43.02s-1.76,20.51.92,31.69"/><path class="cls-2" d="m104.04,44.41s8.5,17.37.74,33.82"/><path class="cls-2" d="m127.11,57.99s-8.5,16.02-21.37,21.99"/><path class="cls-2" d="m107.77,67.6s8.25-10.96,19.34-10.9"/><path class="cls-2" d="m122.86,27.75s-14.97,12.14-15.21,27.78"/><path class="cls-2" d="m124.64,28.92s1.23,6.22-2.71,13.49"/><path class="cls-2" d="m108.57,62.06s5.98-19.71,22.73-23.53"/><path class="cls-2" d="m131.6,39.14s-1.48,8.01-11.09,12.75c-9.61,4.74-12.32,13.8-12.32,13.8"/><path class="cls-2" d="m123.6,38.47s8.01-10.41,16.14-12.63"/><path class="cls-2" d="m134.38,71.67s-.18-20.88,9.67-29.32c0,0,8.69,5.85,9.61,29.44"/><path class="cls-2" d="m177.62,116.39s13.61-3.08,13.43-18.79c0,0,10.29-12.94,3.39-28.83,0,0-2.06.31-3.36,1.42,0,0,7.85-19.22-4.53-28.18,0,0-2.68,2.22-3.23,3.88,0,0,1.48-16.82-19.22-18.94l-.83,2.03s-3.51-4.16-15.52-3.6c0,0-.18,5.82,7.76,12.94,0,0-3.23,10.81,4.8,18.11,0,0-.55,15.89,10.9,25.59"/><path class="cls-2" d="m181.01,84.7s4.25-9.7,9.79-14.04"/><path class="cls-2" d="m160.96,56.05s13.77,1.94,18.39,11c0,0,3.6,9.33,4.34,12.47"/><path class="cls-2" d="m161.05,56.7s10.63,20.97,21.81,22.82"/><path class="cls-2" d="m186.55,42.93s2.4,22.08-2.59,34.83"/><path class="cls-2" d="m164.47,27.59s17.99,9.64,15.4,40.32"/><path class="cls-2" d="m156.06,38.22s3.05,9.33,11.55,13.77c8.5,4.44,11.83,14.14,11.83,14.14"/><path class="cls-2" d="m156.43,38.22s14.69,2.13,23.38,22.73"/><path class="cls-2" d="m148.02,25.84s12.57,4.44,19.03,17.28"/><path class="cls-2" d="m163.2,29.23s-.43,5.42.99,8.69"/><path class="cls-2" d="m194.13,69.26s-3.7,24.02-12.63,32.89"/><path class="cls-2" d="m181.05,102.94s6.98-2.36,9.66-5.17"/><path class="cls-2" d="m129.76,54.05s6.47-3.51,8.44-3.7"/><path class="cls-2" d="m149.16,49.68s7.52,4.13,9.55,5.3"/><path class="cls-2" d="m127.97,94.58s1.02,1.97.59,4.39c-.38,2.12-2.52,3.48-4.62,2.99-1.75-.41-3.63-1.56-3.92-4.52"/><path class="cls-2" d="m160.43,94.46s-1.76,2.48-.48,5.34c.68,1.51,2.21,2.49,3.87,2.45s3.65-.74,4.34-3.69"/></g><g><path class="cls-3" d="m153.77,261.19s29.04-.46,56.71-23.1"/><path class="cls-3" d="m155.59,216.32s31.21-10.81,30.19-42.88"/><polyline class="cls-3" points="143.07 195.82 146.76 199.34 143.33 207.23"/><path class="cls-3" d="m84.08,182.01s1.37,23.15,10.12,37.9"/><path class="cls-3" d="m177.2,119.58s9.43,23.67,18.52,37.39"/><path class="cls-3" d="m170.52,132.45s5.66,27.27,11.83,35.16"/><path class="cls-3" d="m109.75,119.53s-10.52,34.07-35.67,63"/><path class="cls-3" d="m116.83,132.45s-2.63,21.95-10.98,32.93"/><path class="cls-3" d="m123.52,136.22s11.32,9.26,19.72,10.98c0,0,6,.34,19.89-10.12"/><path class="cls-3" d="m146.56,114.44s1.09,4.4,1.09,5.15-2.69,2-4.69,1.26"/><path class="cls-3" d="m143.47,62.82s9.95,15.78,26.3,20.12"/><path class="cls-3" d="m105.6,44.12s1.8-12.18,13.81-14.84"/><path class="cls-3" d="m131.41,36.92s4.46-4.46,6.77-9.09"/><path class="cls-3" d="m108.34,82.8s12.61-1.97,16.46-13.46"/><path class="cls-3" d="m102.68,100.03s-5.06-7.29-9.09-25.47"/><path class="cls-3" d="m158.51,40.18s6.17,8.4,10.81,10.63c4.63,2.23,8.75,9.43,8.75,9.43"/><path class="cls-3" d="m194.47,74.36s3.2,17.84-8.69,24.93"/><path class="cls-3" d="m160.83,98.49s1.37,4.54,5.49,1.8"/><path class="cls-3" d="m121.64,98.77s4,4.8,5.95,0"/></g></g></g></g></svg>