<?xml version="1.0" encoding="UTF-8"?><svg id="Layer_2" xmlns="http://www.w3.org/2000/svg" viewBox="0 0 1175.3 23.22"><defs><style>.cls-1{letter-spacing:0em;}.cls-2,.cls-3{fill:#f0891e;}.cls-4{letter-spacing:-.02em;}.cls-3{font-family:Cabin-Bold, Cabin;font-size:20.12px;font-weight:700;}.cls-5{letter-spacing:0em;}</style></defs><g id="Layer_1-2"><g><text class="cls-3" transform="translate(542.69 17.1)"><tspan class="cls-4" x="0" y="0">R</tspan><tspan x="12.21" y="0">esou</tspan><tspan class="cls-1" x="53.66" y="0">r</tspan><tspan class="cls-5" x="60.12" y="0">c</tspan><tspan x="69.19" y="0">es</tspan></text><g><g><path class="cls-2" d="m0,10.87s2.62,11.75,20.49-.07c0,0-16.85-11.94-20.49.07Zm4.11-.07c0-.31.3-.56.68-.57.38,0,.68.25.68.56,0,.31-.3.56-.68.57s-.68-.25-.68-.56Zm11.95-.02s-1.15,3.54-9.35.03c0,0,7.65-3.63,9.35-.03Z"/><path class="cls-2" d="m21.81,9.19c1.04,0,1.89.69,1.89,1.55h0c0,.86-.84,1.56-1.88,1.56h0c-1.04,0-1.89-.69-1.89-1.55h0c0-.86.84-1.56,1.88-1.56h0Z"/><path class="cls-2" d="m36.28,9.14c1.04,0,1.89.69,1.89,1.55h0c0,.86-.84,1.56-1.88,1.56h0c-1.04,0-1.89-.69-1.89-1.55h0c0-.86.84-1.56,1.88-1.56h0Z"/><path class="cls-2" d="m29.05,6.6s-6.44,4.12-6.39,4.15c-.06.02,6.43,4.1,6.43,4.1.75-1.35,6.42-4.14,6.41-4.15.09-.04-5.69-2.76-6.45-4.1Z"/><path class="cls-2" d="m523.3,10.77c11.64,7.7,13.34.04,13.34.04-2.37-7.82-13.34-.04-13.34-.04Zm10.22.37c-.25,0-.44-.17-.44-.37,0-.2.2-.37.45-.37.25,0,.44.17.44.37,0,.2-.2.37-.45.37Zm-1.25-.36c-5.34,2.28-6.09-.02-6.09-.02,1.11-2.34,6.09.02,6.09.02Z"/><path class="cls-2" d="m522.43,9.71c-.68,0-1.23.45-1.23,1.01h0c0,.56.54,1.02,1.22,1.02h0c.68,0,1.23-.45,1.23-1.01h0c0-.56-.54-1.02-1.22-1.02h0Z"/></g><rect class="cls-2" x="35.86" y="10.14" width="485.34" height="1.1"/></g><g><g><path class="cls-2" d="m1154.81,10.8c17.87,11.82,20.49.07,20.49.07-3.64-12.01-20.49-.07-20.49-.07Zm15.7.56c-.38,0-.68-.25-.68-.57,0-.31.31-.56.68-.56.38,0,.68.25.68.57,0,.31-.31.56-.68.56Zm-1.91-.55c-8.2,3.51-9.35-.03-9.35-.03,1.71-3.6,9.35.03,9.35.03Z"/><path class="cls-2" d="m1153.49,9.19c-1.04,0-1.89.69-1.89,1.55h0c0,.86.84,1.56,1.88,1.56h0c1.04,0,1.89-.69,1.89-1.55h0c0-.86-.84-1.56-1.88-1.56h0Z"/><path class="cls-2" d="m1139.02,9.14c-1.04,0-1.89.69-1.89,1.55h0c0,.86.84,1.56,1.88,1.56h0c1.04,0,1.89-.69,1.89-1.55h0c0-.86-.84-1.56-1.88-1.56h0Z"/><path class="cls-2" d="m1146.25,6.6s6.44,4.12,6.39,4.15c.06.02-6.43,4.1-6.43,4.1-.75-1.35-6.42-4.14-6.41-4.15-.09-.04,5.69-2.76,6.45-4.1Z"/><path class="cls-2" d="m638.2,10.81s1.7,7.65,13.34-.04c0,0-10.97-7.78-13.34.04Zm2.68-.04c0-.2.2-.37.44-.37.25,0,.44.16.45.37,0,.2-.2.37-.44.37-.25,0-.44-.16-.45-.37Zm7.78-.02s-.75,2.3-6.09.02c0,0,4.98-2.36,6.09-.02Z"/><path class="cls-2" d="m652.4,9.71c.68,0,1.23.45,1.23,1.01h0c0,.56-.54,1.02-1.22,1.02h0c-.68,0-1.23-.45-1.23-1.01h0c0-.56.54-1.02,1.22-1.02h0Z"/></g><rect class="cls-2" x="653.63" y="10.15" width="484.83" height="1.1"/></g></g></g></svg>