<svg xmlns="http://www.w3.org/2000/svg" viewBox="0 0 1199.22 28.85"><defs><style>.cls-1{font-size:25px;font-family:Cabin-Bold, Cabin;font-weight:700;}.cls-1,.cls-5{fill:#f0891e;}.cls-2{letter-spacing:-0.02em;}.cls-3{letter-spacing:-0.01em;}.cls-4{letter-spacing:0em;}</style></defs><g id="Layer_2" data-name="Layer 2"><g id="Layer_1-2" data-name="Layer 1"><text class="cls-1" transform="translate(545.63 21.25)"><tspan class="cls-2">R</tspan><tspan x="15.17" y="0">esou</tspan><tspan class="cls-3" x="66.67" y="0">r</tspan><tspan class="cls-4" x="74.7" y="0">c</tspan><tspan x="85.97" y="0">es</tspan></text><path class="cls-5" d="M1178.85,14.1c17.77,11.75,20.37.07,20.37.07C1195.6,2.23,1178.85,14.1,1178.85,14.1Zm15.61.56a.63.63,0,0,1-.68-.56.63.63,0,0,1,.68-.56.63.63,0,0,1,.68.56A.63.63,0,0,1,1194.46,14.66Zm-1.91-.55c-8.15,3.49-9.29,0-9.29,0C1185,10.5,1192.55,14.11,1192.55,14.11Z"/><path class="cls-5" d="M1177.54,12.5a1.72,1.72,0,0,0-1.88,1.54h0a1.72,1.72,0,0,0,1.86,1.55h0a1.74,1.74,0,0,0,1.88-1.54h0a1.72,1.72,0,0,0-1.86-1.55Z"/><path class="cls-5" d="M1163.15,12.45a1.73,1.73,0,0,0-1.88,1.54h0a1.73,1.73,0,0,0,1.87,1.55h0A1.73,1.73,0,0,0,1165,14h0a1.73,1.73,0,0,0-1.87-1.55Z"/><path class="cls-5" d="M1170.34,9.92s6.4,4.1,6.34,4.12-6.38,4.08-6.38,4.08c-.75-1.34-6.39-4.12-6.38-4.12S1169.58,11.26,1170.34,9.92Z"/><path class="cls-5" d="M665.24,14.11s1.69,7.61,13.26,0C678.5,14.06,667.59,6.33,665.24,14.11Zm2.66,0a.39.39,0,0,1,.43-.36.37.37,0,1,1,0,.73A.4.4,0,0,1,667.9,14.06Zm7.73,0s-.74,2.29-6,0C669.58,14.07,674.53,11.72,675.63,14.05Z"/><path class="cls-5" d="M679.36,13a1.13,1.13,0,0,1,1.22,1h0a1.12,1.12,0,0,1-1.21,1h0a1.13,1.13,0,0,1-1.23-1h0a1.12,1.12,0,0,1,1.22-1Z"/><rect class="cls-5" x="680.58" y="12.57" width="482.01" height="3" rx="1.5"/><path class="cls-5" d="M0,14.17s2.6,11.68,20.37-.07C20.37,14.1,3.62,2.23,0,14.17Zm4.08-.07a.63.63,0,0,1,.68-.56.63.63,0,0,1,.68.56.62.62,0,0,1-.67.56A.64.64,0,0,1,4.08,14.1Zm11.89,0s-1.15,3.52-9.3,0C6.67,14.11,14.27,10.5,16,14.08Z"/><path class="cls-5" d="M21.69,12.5A1.73,1.73,0,0,1,23.57,14h0a1.73,1.73,0,0,1-1.87,1.55h0a1.75,1.75,0,0,1-1.88-1.54h0a1.73,1.73,0,0,1,1.87-1.55Z"/><path class="cls-5" d="M36.07,12.45A1.73,1.73,0,0,1,38,14h0a1.73,1.73,0,0,1-1.87,1.55h0A1.73,1.73,0,0,1,34.2,14h0a1.74,1.74,0,0,1,1.87-1.55Z"/><path class="cls-5" d="M28.89,9.92S22.48,14,22.54,14s6.39,4.08,6.39,4.08C29.67,16.78,35.31,14,35.3,14S29.65,11.26,28.89,9.92Z"/><path class="cls-5" d="M520.72,14.06c11.57,7.66,13.27,0,13.27,0C531.63,6.33,520.72,14.06,520.72,14.06Zm10.16.37a.37.37,0,1,1,0-.73.37.37,0,1,1,0,.73Zm-1.24-.36c-5.31,2.27-6,0-6,0C524.69,11.72,529.64,14.07,529.64,14.07Z"/><path class="cls-5" d="M519.86,13a1.13,1.13,0,0,0-1.22,1h0a1.12,1.12,0,0,0,1.21,1h0a1.12,1.12,0,0,0,1.23-1h0a1.12,1.12,0,0,0-1.22-1Z"/><rect class="cls-5" x="36.63" y="12.57" width="482.01" height="3" rx="1.5"/></g></g></svg>