<svg xmlns="http://www.w3.org/2000/svg" viewBox="0 0 536.64 10.56"><defs><style>.cls-1{fill:#f0891e;}</style></defs><g id="Layer_2" data-name="Layer 2"><g id="Layer_1-2" data-name="Layer 1"><path class="cls-1" d="M0,5.35s2.62,11.76,20.49-.06C20.49,5.29,3.64-6.65,0,5.35Zm4.11-.06a.63.63,0,0,1,.68-.57.63.63,0,0,1,.68.56.63.63,0,0,1-.68.57A.63.63,0,0,1,4.11,5.29Zm12,0s-1.15,3.54-9.35,0C6.71,5.3,14.35,1.67,16.06,5.26Z"/><path class="cls-1" d="M21.81,3.67A1.75,1.75,0,0,1,23.7,5.22h0a1.74,1.74,0,0,1-1.87,1.57h0a1.75,1.75,0,0,1-1.89-1.55h0a1.74,1.74,0,0,1,1.87-1.57Z"/><path class="cls-1" d="M36.28,3.63a1.74,1.74,0,0,1,1.89,1.55h0a1.74,1.74,0,0,1-1.88,1.56h0A1.75,1.75,0,0,1,34.4,5.19h0a1.74,1.74,0,0,1,1.88-1.56Z"/><path class="cls-1" d="M29.05,1.08s-6.44,4.13-6.38,4.15,6.42,4.1,6.42,4.1c.76-1.35,6.43-4.14,6.42-4.15S29.82,2.43,29.05,1.08Z"/><path class="cls-1" d="M523.3,5.25c11.63,7.7,13.34,0,13.34,0C534.27-2.53,523.3,5.25,523.3,5.25Zm10.22.37a.4.4,0,0,1-.44-.37.41.41,0,0,1,.44-.37.41.41,0,0,1,.44.37A.41.41,0,0,1,533.52,5.62Zm-1.25-.36c-5.34,2.28-6.09,0-6.09,0C527.29,2.89,532.27,5.26,532.27,5.26Z"/><path class="cls-1" d="M522.43,4.2a1.15,1.15,0,0,0-1.23,1h0a1.14,1.14,0,0,0,1.22,1h0a1.15,1.15,0,0,0,1.24-1h0a1.14,1.14,0,0,0-1.23-1Z"/><rect class="cls-1" x="35.86" y="4.63" width="485.34" height="1.1"/></g></g></svg>