<svg xmlns="http://www.w3.org/2000/svg" viewBox="0 0 537.11 10.56"><defs><style>.cls-1{fill:#f0891e;}</style></defs><g id="Layer_2" data-name="Layer 2"><g id="Layer_1-2" data-name="Layer 1"><path class="cls-1" d="M516.62,5.29c17.87,11.82,20.49.06,20.49.06C533.46-6.65,516.62,5.29,516.62,5.29Zm15.69.56a.63.63,0,0,1-.68-.57.7.7,0,0,1,1.37,0A.64.64,0,0,1,532.31,5.85ZM530.4,5.3c-8.2,3.5-9.35,0-9.35,0C522.75,1.67,530.4,5.3,530.4,5.3Z"/><path class="cls-1" d="M515.29,3.67a1.75,1.75,0,0,0-1.89,1.55h0a1.76,1.76,0,0,0,1.88,1.57h0a1.75,1.75,0,0,0,1.89-1.55h0a1.76,1.76,0,0,0-1.88-1.57Z"/><path class="cls-1" d="M500.83,3.63a1.75,1.75,0,0,0-1.9,1.55h0a1.74,1.74,0,0,0,1.88,1.56h0a1.75,1.75,0,0,0,1.89-1.55h0a1.73,1.73,0,0,0-1.87-1.56Z"/><path class="cls-1" d="M508.05,1.08s6.44,4.13,6.39,4.15S508,9.33,508,9.33c-.75-1.35-6.42-4.14-6.41-4.15S507.29,2.43,508.05,1.08Z"/><path class="cls-1" d="M0,5.29s1.7,7.66,13.34,0C13.34,5.25,2.37-2.53,0,5.29Zm2.68,0a.4.4,0,0,1,.44-.37.41.41,0,0,1,.44.37.41.41,0,0,1-.44.37A.41.41,0,0,1,2.68,5.25Zm7.78,0s-.75,2.3-6.09,0C4.37,5.26,9.35,2.89,10.46,5.24Z"/><path class="cls-1" d="M14.2,4.2a1.15,1.15,0,0,1,1.24,1h0a1.14,1.14,0,0,1-1.23,1h0a1.15,1.15,0,0,1-1.23-1h0a1.14,1.14,0,0,1,1.22-1Z"/><rect class="cls-1" x="15.44" y="4.63" width="484.83" height="1.1"/></g></g></svg>