<svg xmlns="http://www.w3.org/2000/svg" viewBox="0 0 827.59 27.7"><defs><style>.cls-1{font-size:24px;font-family:Cabin-Bold, Cabin;font-weight:700;}.cls-1,.cls-5{fill:#f69c32;}.cls-2{letter-spacing:-0.02em;}.cls-3{letter-spacing:-0.01em;}.cls-4{letter-spacing:0em;}</style></defs><g id="Layer_2" data-name="Layer 2"><g id="Layer_1-2" data-name="Layer 1"><text class="cls-1" transform="translate(361.89 20.4)"><tspan class="cls-2">R</tspan><tspan x="14.57" y="0">esou</tspan><tspan class="cls-3" x="64.01" y="0">r</tspan><tspan class="cls-4" x="71.71" y="0">c</tspan><tspan x="82.54" y="0">es</tspan></text><path class="cls-5" d="M0,12.63s3.72,16.7,29.12-.1C29.12,12.53,5.18-4.44,0,12.63Zm5.84-.09a.89.89,0,0,1,1-.81.91.91,0,0,1,1,.8.9.9,0,0,1-1,.8A.89.89,0,0,1,5.84,12.54Zm17,0s-1.63,5-13.29.05C9.53,12.55,20.4,7.39,22.82,12.5Z"/><path class="cls-5" d="M31,10.24a2.49,2.49,0,0,1,2.69,2.2h0A2.47,2.47,0,0,1,31,14.66h0a2.47,2.47,0,0,1-2.68-2.2h0A2.47,2.47,0,0,1,31,10.24Z"/><path class="cls-5" d="M51.56,10.17a2.49,2.49,0,0,1,2.69,2.21h0a2.48,2.48,0,0,1-2.67,2.22h0a2.48,2.48,0,0,1-2.68-2.21h0a2.47,2.47,0,0,1,2.66-2.22Z"/><path class="cls-5" d="M41.29,6.56s-9.15,5.86-9.07,5.89c-.08,0,9.13,5.83,9.13,5.83,1.07-1.92,9.13-5.88,9.11-5.89C50.6,12.33,42.38,8.47,41.29,6.56Z"/><path class="cls-5" d="M331.57,12.48c16.54,10.94,19,.06,19,.06C347.16,1.43,331.57,12.48,331.57,12.48ZM346.1,13a.53.53,0,1,1,0-1,.59.59,0,0,1,.63.52A.58.58,0,0,1,346.1,13Zm-1.77-.51c-7.59,3.25-8.66,0-8.66,0C337.25,9.13,344.33,12.49,344.33,12.49Z"/><path class="cls-5" d="M330.58,10.11a2.48,2.48,0,0,0-2.68,2.2h0a2.46,2.46,0,0,0,2.66,2.22h0a2.48,2.48,0,0,0,2.69-2.2h0a2.48,2.48,0,0,0-2.67-2.22Z"/><rect class="cls-5" x="52.75" y="10.47" width="277.39" height="3.64"/><path class="cls-5" d="M798.58,12.53c25.31,16.74,29,.1,29,.1C822.44-4.38,798.58,12.53,798.58,12.53Zm22.23.8a.9.9,0,0,1-1-.8,1,1,0,0,1,1.94,0A.9.9,0,0,1,820.81,13.33Zm-2.71-.78c-11.62,5-13.25-.05-13.25-.05C807.27,7.41,818.1,12.55,818.1,12.55Z"/><path class="cls-5" d="M796.7,10.25A2.48,2.48,0,0,0,794,12.44h0a2.48,2.48,0,0,0,2.66,2.22h0a2.49,2.49,0,0,0,2.68-2.2h0a2.46,2.46,0,0,0-2.66-2.21Z"/><path class="cls-5" d="M776.21,10.18a2.47,2.47,0,0,0-2.67,2.2h0a2.46,2.46,0,0,0,2.65,2.21h0a2.48,2.48,0,0,0,2.68-2.2h0a2.47,2.47,0,0,0-2.66-2.21Z"/><path class="cls-5" d="M786.45,6.58s9.12,5.84,9,5.87c.08,0-9.1,5.81-9.1,5.81-1.06-1.91-9.1-5.86-9.08-5.87S785.36,8.48,786.45,6.58Z"/><path class="cls-5" d="M478.3,12.54s2.41,10.84,18.9-.06C497.2,12.48,481.66,1.47,478.3,12.54Zm3.79-.06a.58.58,0,0,1,.62-.52.6.6,0,0,1,.64.52.64.64,0,0,1-1.26,0Zm11,0s-1.06,3.26-8.63,0C484.48,12.49,491.54,9.14,493.11,12.46Z"/><path class="cls-5" d="M498.18,10.12a2.48,2.48,0,0,1,2.68,2.19h0a2.47,2.47,0,0,1-2.66,2.21h0a2.45,2.45,0,0,1-2.67-2.19h0a2.45,2.45,0,0,1,2.65-2.21Z"/><rect class="cls-5" x="498.62" y="10.47" width="276.41" height="3.63"/></g></g></svg>