<?xml version="1.0" encoding="UTF-8"?><svg id="Layer_2" xmlns="http://www.w3.org/2000/svg" viewBox="0 0 288.47 288.47"><defs><style>.cls-1,.cls-2,.cls-3,.cls-4{stroke-miterlimit:10;}.cls-1,.cls-2,.cls-4{stroke:#6a0d38;}.cls-1,.cls-3{fill:none;}.cls-1,.cls-3,.cls-4{stroke-width:1.64px;}.cls-5,.cls-2,.cls-4{fill:#f68e1e;}.cls-2{stroke-width:1.59px;}.cls-3{stroke:#fff;stroke-linecap:round;}</style></defs><g id="Layer_1-2"><g><circle class="cls-5" cx="144.24" cy="144.24" r="144.24"/><g><path class="cls-4" d="m192.62,91.79c5.15,1.63,9.05,6.61,9.4,11.99.27,4.11-1.32,8.39.09,12.25,1.09,2.98,3.76,5.09,5.22,7.9,4.91,9.52-5.86,21.17-2.35,31.29,1.32,3.79,4.51,6.75,5.61,10.61.83,2.91.38,6.02.64,9.04.99,11.68,12.4,22.2,8.72,33.34l-54.18-23.44-3.26-19.11,30.13-73.88Z"/><path class="cls-4" d="m69.7,215.3l56.67-30.75,1.17-13.75-28.65-81.98c-6.53-2.83-15.08.9-17.46,7.61-3.33,9.42,4.65,19.65,2.66,29.44-.9,4.42-3.73,8.15-5.8,12.15-11.93,23.09,3.55,54.29-8.58,77.28"/><path class="cls-4" d="m225.41,227.73c-4.58,4.82-9.56,9.26-14.91,13.27-7.9,5.9-16.59,10.84-25.87,14.61-2.3.95-4.65,1.82-7.03,2.61-6.17,2.06-12.58,3.6-19.17,4.61-5.8.89-11.73,1.35-17.78,1.35s-11.73-.44-17.4-1.29c-3.69-.56-7.33-1.28-10.89-2.18-16.85-4.17-32.24-12.01-45.29-22.63,0-14.56-1.25-32.58,21.52-41.1,13.09-4.89,20.41-7.55,24.8-9.17,3.27-1.19,4.96-1.8,6.23-2.34,3-1.25,4.5-3.75,4.5-6.25v-21.77l13.54,6.73,8.62,4.28,7.91-3.93,14.25-7.07v21.77c0,2.49,1.5,5,4.5,6.25.53.23,1.11.45,1.85.72h0c2.31.89,6.08,2.24,13.77,5.07,1.4.51,2.91,1.07,4.58,1.68.62.24,1.26.48,1.94.72,2.07.78,4.35,1.62,6.86,2.55.11.05.21.09.33.12.53.2,1.05.41,1.61.6.03.01.07.03.11.05,2.45.92,4.62,1.95,6.55,3.06.63.36,1.23.74,1.8,1.13,1.52,1.01,2.87,2.09,4.05,3.24,6.91,6.56,8.6,15,9.01,23.3Z"/><path class="cls-4" d="m197.09,106.83c.38-.13.83-.23,1.19-.04.34.19.5.59.61.97.55,2,.21,4.13-.13,6.18-.16.96-.32,1.92-.47,2.88-.45,2.71-.92,5.5-2.34,7.85-1.41,2.36-4.01,4.21-6.74,3.93.08-5.23-.47-10.91.25-16.08.49-3.58,4.64-4.19,7.64-5.69Z"/><path class="cls-4" d="m95.23,106.83c-.38-.13-.83-.23-1.19-.04-.34.19-.5.59-.61.97-.55,2-.21,4.13.13,6.18.16.96.32,1.92.47,2.88.45,2.71.92,5.5,2.34,7.85,1.41,2.36,4.01,4.21,6.74,3.93-.08-5.23.47-10.91-.25-16.08-.49-3.58-4.64-4.19-7.64-5.69Z"/><path class="cls-4" d="m188.01,141.03s5.07,11.01,4.37,17.48c-.7,6.47-13.28,0-13.28,0"/><path class="cls-4" d="m102.18,141.03s-5.07,11.01-4.37,17.48c.7,6.47,13.28,0,13.28,0"/><path class="cls-4" d="m141.3,44.06s-10.25-7.34,4.66-28.31c0,0,10.6,9.9,9.44,28.66"/><path class="cls-4" d="m101.29,99.49s-16.33,72.48,40.42,83.42c0,0,55.35,2.21,50.46-79.58,0,0-48.58-53.83-90.87-3.84Z"/><path class="cls-4" d="m100.17,104.15s-11.88-76.85,66.99-59.63c0,0,34.97,15.13,25,58.81,0,0-25.5-18.64-46.28.99,0,0-1.4-2.12-4.02-4.59-2.08-1.95-4.92-4.12-8.43-5.64-7.96-3.42-19.39-3.47-33.25,10.05Z"/><ellipse class="cls-1" cx="146.38" cy="93.96" rx="4.6" ry="8.56"/><path class="cls-1" d="m134.19,94.25s-3.15-18.87,12.7-28.19c0,0,12.58,11.18,12.23,30.41"/><path class="cls-1" d="m99.7,89.24s29.46-12.29,33.72,4.86"/><path class="cls-1" d="m159.7,96.11s15.5-18.64,34.02-3.96"/><path class="cls-1" d="m133.72,87.61s-11.3-5.94-7.34-16.89c0,0,2.91-.58,5.83,3.61,0,0-3.15-6.99,3.96-14.8,0,0,1.75-.23,3.26,5.36,0,0,1.75-10.83,8.39-14.68,0,0,4.43,4.54,6.64,13.4,0,0,3.26-4.43,4.89-4.31,0,0,4.78,6.29,1.75,14.91,0,0,3.38-3.5,5.24-3.38,0,0,4.08,11.3-7.34,20.04"/><path class="cls-4" d="m142.64,107.77s-2.44,10.31,4.17,10.86,4.36-10.54,4.36-10.54"/><path class="cls-4" d="m119.36,126.74c-1.47.44-2.98,5.81,1.16,7.26,3.91,1.36,5.68-1.85,5.75-3.73.06-1.77-.36-2.75-.36-2.75"/><path class="cls-4" d="m174.45,126.74c1.47.44,2.98,5.81-1.16,7.26-3.91,1.36-5.68-1.85-5.75-3.73-.06-1.77.36-2.75.36-2.75"/><path class="cls-4" d="m130.34,132.43s-1.44-4.88-5.74-5.17c-4.31-.29-9.47-1.15-11.48-1.87l1.72,4.88"/><path class="cls-4" d="m163.47,132.43s1.44-4.88,5.74-5.17c4.31-.29,9.47-1.15,11.48-1.87l-1.72,4.88"/><path class="cls-4" d="m133.27,119.7c-1.88-.38-2.82-2.25-6.19-3.19-3.38-.94-5.63,0-9.57-.19-3.94-.19-6.76-2.06-6.76-2.06"/><path class="cls-4" d="m158.1,119.7c1.88-.38,2.82-2.25,6.19-3.19,3.38-.94,5.63,0,9.57-.19,3.94-.19,6.76-2.06,6.76-2.06"/><path class="cls-4" d="m138.52,146.49c-.31,1.56.63,2.06,1.44,2.44s1.94,2.06,4.63,2.06c3.11,0,3.77-1.45,4.75-1.75,1.11-.34,2.64-.65,2.73-2.43"/><path class="cls-4" d="m160.07,160.54s-3.57,2-6.85,2.07c-3.28.07-4.78-.36-8.42-.36s-5.14.43-8.42.36c-3.28-.07-6.85-2.07-6.85-2.07"/><path class="cls-4" d="m135.89,165.68s2.63,2.49,9.1,2.49,8.54-1.74,8.54-1.74"/><g><circle class="cls-4" cx="116.72" cy="191.67" r="4.37"/><circle class="cls-4" cx="122.36" cy="199.02" r="4.37"/><circle class="cls-4" cx="130.47" cy="203.04" r="4.37"/><circle class="cls-4" cx="139.03" cy="205.49" r="4.37"/><circle class="cls-4" cx="147.76" cy="206.45" r="4.37"/><circle class="cls-4" cx="156.58" cy="205.54" r="4.37"/><circle class="cls-4" cx="165.44" cy="202.84" r="4.37"/><circle class="cls-4" cx="173.68" cy="199.32" r="4.37"/><circle class="cls-4" cx="181.13" cy="194.34" r="4.37"/></g><g><circle class="cls-4" cx="145.16" cy="241.91" r="5.85"/><ellipse class="cls-4" cx="155.76" cy="239.47" rx="5.16" ry="4.19" transform="translate(-119.63 163.56) rotate(-41.55)"/><ellipse class="cls-4" cx="153.78" cy="248.26" rx="5.16" ry="4.19" transform="translate(-25.39 17.65) rotate(-6.07)"/><ellipse class="cls-4" cx="144.15" cy="251.88" rx="5.16" ry="4.19" transform="translate(-25.83 16.66) rotate(-6.07)"/><ellipse class="cls-2" cx="135.65" cy="247.38" rx="5.16" ry="3.97" transform="translate(-25.4 15.73) rotate(-6.07)"/><ellipse class="cls-2" cx="134.48" cy="239.13" rx="3.97" ry="5.16" transform="translate(-134.08 295.18) rotate(-72.44)"/></g><path class="cls-1" d="m146.42,235.92s4.54-6.64,22.72-13.98,36-14.33,39.5-22.02"/><path class="cls-1" d="m144.09,235.92s-4.54-6.64-22.72-13.98c-18.17-7.34-36-14.33-39.5-22.02"/><path class="cls-3" d="m146.09,18.78s6.99,8.04,7.51,21.32"/><path class="cls-3" d="m141.72,60.43s2.68-5.83,5.71-8.62c0,0,4.19,3.84,6.41,14.56,0,0,3.73-4.89,4.89-5.36.49-.19,1.64,3.99,1.69,4.24.39,2.04.22,4.12-.14,6.15-.34,1.87-1.34,4.04-1.31,5.91,2.48-1.01,3.84-3.94,6.52-4.89,0,0,.93,10.49-5.59,16.08"/><path class="cls-3" d="m196.94,108.78s1.17,6.52-3.26,16.08"/><path class="cls-3" d="m146.61,105.11s18.52-18,43.69-1.22"/><path class="cls-3" d="m152.56,112.75s.47,7.05-4.83,6.87"/><path class="cls-3" d="m138.49,168.2s4.46,2.8,12.5.26"/><path class="cls-3" d="m205.86,160.69s3.15,1.4,3.67,13.63c0,0,0,4.72,3.67,11.88,3.67,7.17,6.29,12.58,5.94,18.35"/><path class="cls-3" d="m153.17,237.58s3.93-3.58,6.03-.09"/><path class="cls-3" d="m153.34,245.27s5.85.7,4.11,3.84"/><path class="cls-3" d="m140.24,252.96s3.23,4.46,7.6-.09"/><path class="cls-3" d="m133.33,245.01s-3.32,2.88.09,4.89"/><path class="cls-3" d="m130.54,239.41s-.17-3.32,3.23-3.41"/><path class="cls-3" d="m140.41,240.38s3.76-5.68,8.65-1.14"/><path class="cls-3" d="m152.56,231.99s8.21-6.47,37.05-16.95c0,0,16.78-7.17,19.75-13.81"/><path class="cls-3" d="m113.67,190.31s-1.4,2.88,1.92,4.46"/><path class="cls-3" d="m98.15,89.91s-18.06-3.61-15.84,15.03"/><path class="cls-3" d="m99.43,151.77s-2.45,9.73,2.5,8.39"/><path class="cls-3" d="m190.7,152.65s3.23,9.48-4.15,7.43"/></g></g></g></svg>