<?xml version="1.0" encoding="UTF-8"?><svg id="Layer_2" xmlns="http://www.w3.org/2000/svg" viewBox="0 0 288.47 288.47"><defs><style>.cls-1,.cls-2,.cls-3,.cls-4,.cls-5,.cls-6,.cls-7,.cls-8,.cls-9,.cls-10{stroke-miterlimit:10;}.cls-1,.cls-2,.cls-3,.cls-5,.cls-6,.cls-7,.cls-8,.cls-9{stroke:#6a0d38;}.cls-1,.cls-11,.cls-6,.cls-7,.cls-8,.cls-9{fill:#f68e1e;}.cls-1,.cls-3,.cls-4,.cls-7{stroke-width:1.64px;}.cls-1,.cls-3,.cls-4,.cls-8,.cls-10{stroke-linecap:round;}.cls-2,.cls-3,.cls-4,.cls-5,.cls-10{fill:none;}.cls-2,.cls-6{stroke-width:1.64px;}.cls-4,.cls-10{stroke:#fff;}.cls-5,.cls-8,.cls-9,.cls-10{stroke-width:1.45px;}</style></defs><g id="Layer_1-2"><g><circle class="cls-11" cx="144.24" cy="144.24" r="144.24"/><g><path class="cls-7" d="m224.68,225.5c-4.58,4.82-9.56,9.26-14.91,13.27-7.9,5.9-16.59,10.84-25.87,14.61-2.3.95-4.65,1.82-7.03,2.61-6.17,2.06-12.58,3.6-19.17,4.61-5.8.89-11.73,1.35-17.78,1.35s-11.73-.44-17.4-1.29c-3.69-.56-7.33-1.28-10.89-2.18-16.85-4.17-32.24-12.01-45.29-22.63,0-14.56-1.25-32.58,21.52-41.1,13.09-4.89,20.41-7.55,24.8-9.17,3.27-1.19,4.96-1.8,6.23-2.34,3-1.25,4.5-3.75,4.5-6.25v-21.77l13.54,6.73,8.62,4.28,7.91-3.93,14.25-7.07v21.77c0,2.49,1.5,5,4.5,6.25.53.23,1.11.45,1.85.72h0c2.31.89,6.08,2.24,13.77,5.07,1.4.51,2.91,1.07,4.58,1.68.62.24,1.26.48,1.94.72,2.07.78,4.35,1.62,6.86,2.55.11.05.21.09.33.12.53.2,1.05.41,1.61.6.03.01.07.03.11.05,2.45.92,4.62,1.95,6.55,3.06.63.36,1.23.74,1.8,1.13,1.52,1.01,2.87,2.09,4.05,3.24,6.91,6.56,8.6,15,9.01,23.3Z"/><path class="cls-1" d="m100.92,155.68s-33.09,3.26-34.49,24.23c-.99,14.82-4.77,20.56-6.9,22.66-.25.25.01.67.34.54,3.06-1.13,9.21-4.22,12.62-11.55,0,0,.87,25.25-22.22,32.83-.71.23-.69,1.25.04,1.42,5.88,1.37,20.32,3.23,24.74-10.02,5.59-16.78,41.01-32.16,50.1-35.65,9.09-3.5,16.08-11.42,16.08-11.42l-.93-20.04-10.95-13.28s-17.01,17.48-28.43,20.27Z"/><path class="cls-1" d="m187.6,155.22s33.09,3.26,34.49,24.23c1.05,15.77,5.27,21.26,7.29,23.02.18.16.02.45-.2.37-2.82-.95-9.53-3.96-13.15-11.74,0,0-.87,25.21,22.16,32.81.73.24.7,1.28-.05,1.45-5.92,1.37-20.27,3.17-24.67-10.03-5.59-16.78-41.01-32.16-50.1-35.65-9.09-3.5-16.08-11.42-16.08-11.42l.93-20.04,10.95-13.28s17.01,17.48,28.43,20.27Z"/><g><path class="cls-9" d="m206.63,38.62c-.91-.09-1.77.42-2.23,1.21-2.76,4.8-14,24.32-16.44,28.39-2.79,4.65-4.96,20.78-3.41,28.53,1.55,7.75,1.24,16.13-1.55,31.01,0,0-.93,9.2-6.31,14.37-5.38,5.17-3.93,13.85-3.93,13.85,0,0-.21,14.47,7.03,13.03,0,0,2.67-1,2.01-5.71-.05-.33.37-.51.56-.23,1.5,2.18,4.44,5.28,5.91-1.28.12-.56.6-.98,1.17-1,1.56-.04,4.35-.68,3.11-5.01-.16-.56.09-1.14.59-1.43,1.08-.61,2.54-2.1,1.26-5.43-.23-.61.04-1.31.64-1.58,1.28-.57,2.86-1.96.81-5.19-.3-.47,0-1.1.54-1.18,2.13-.31,5.83-1.43,2.8-5.44-.25-.32-.14-.79.23-.97,1.69-.83,5.24-3.21.43-6.95-.42-.32-.48-.93-.11-1.31,1.04-1.07,2.53-3.26.3-5.61-.39-.41-.39-1.05-.02-1.48.88-1.04,2.15-2.92,1.52-4.55-.21-.53-.07-1.12.39-1.47,1.26-.96,3.12-3.03,1.17-5.93-.37-.56-.35-1.29.04-1.84.96-1.37,2.26-4.02.17-6.4-.37-.42-.37-1.04.05-1.41,1.82-1.61,5.73-5.79,2.12-9.36-.5-.49-.48-1.3,0-1.81,2.81-2.91,10.22-11.39,4.04-13.78-.54-.21-.8-.82-.53-1.33,1.29-2.41,4.12-8.49,1.21-10.59-.41-.29-.63-.77-.5-1.25.61-2.37,1.93-8.88-1.95-9.28-.68-.07-1.1-.78-.84-1.41,1.24-3.08,3.51-9.81-.28-10.2Z"/><path class="cls-8" d="m206.67,49.47s-7.98,23.62-17.75,34.12"/><path class="cls-8" d="m205.34,86.68s-10.61,14.12-16.71,19.81"/><path class="cls-8" d="m199.81,119.44s-7.27,5.93-15.48,12.29"/><line class="cls-8" x1="192.4" y1="154.86" x2="180" y2="146.08"/><g><g><g><g><path class="cls-9" d="m87.45,41.14c.91-.09,1.77.42,2.23,1.21,2.76,4.8,14,24.32,16.44,28.39,2.79,4.65,4.96,20.78,3.41,28.53-1.55,7.75-1.24,16.13,1.55,31.01,0,0,.93,9.2,6.31,14.37,5.38,5.17,3.93,13.85,3.93,13.85,0,0,.21,14.47-7.03,13.03,0,0-2.67-1-2.01-5.71.05-.33-.37-.51-.56-.23-1.5,2.18-4.44,5.28-5.91-1.28-.12-.56-.6-.98-1.17-1-1.56-.04-4.35-.68-3.11-5.01.16-.56-.09-1.14-.59-1.43-1.08-.61-2.54-2.1-1.26-5.43.23-.61-.04-1.31-.64-1.58-1.28-.57-2.86-1.96-.81-5.19.3-.47,0-1.1-.54-1.18-2.13-.31-5.83-1.43-2.8-5.44.25-.32.14-.79-.23-.97-1.69-.83-5.24-3.21-.43-6.95.42-.32.48-.93.11-1.31-1.04-1.07-2.53-3.26-.3-5.61.39-.41.39-1.05.02-1.48-.88-1.04-2.15-2.92-1.52-4.55.21-.53.07-1.12-.39-1.47-1.26-.96-3.12-3.03-1.17-5.93.37-.56.35-1.29-.04-1.84-.96-1.37-2.26-4.02-.17-6.4.37-.42.37-1.04-.05-1.41-1.82-1.61-5.73-5.79-2.12-9.36.5-.49.48-1.3,0-1.81-2.81-2.91-10.22-11.39-4.04-13.78.54-.21.8-.82.53-1.33-1.29-2.41-4.12-8.49-1.21-10.59.41-.29.63-.77.5-1.25-.61-2.37-1.93-8.88,1.95-9.28.68-.07,1.1-.78.84-1.41-1.24-3.08-3.51-9.81.28-10.2Z"/><path class="cls-6" d="m189.41,98.6c-4.42,39.85-9.94,49.19-13.56,54.31-5.26,7.42-22.44,18.6-29.53,18.6s-24.25-11.18-29.51-18.6c-3.62-5.12-9.14-14.46-13.58-54.31-4.42-39.84,43.09-53.12,43.09-53.12,0,0,47.53,13.28,43.09,53.12Z"/></g><path class="cls-5" d="m103.84,84.91s52.21,9.51,83.74-3"/></g><path class="cls-9" d="m187.94,67.57c.43-.78.55-1.71.31-2.57-6.01-20.78-24.45-26.88-24.45-26.88-40.8-13.83-56.34,18.88-59.42,26.73-.4,1.01-.29,2.14.29,3.06l6.2,9.9c.61.97,1.66,1.57,2.81,1.59l19.89.4c1.08.02,2.1.5,2.81,1.31l8.44,9.71c.94,1.08,2.61,1.09,3.56.02l9-10.07c.54-.6,1.3-.96,2.1-1l20.18-.93c1.32-.06,2.52-.81,3.16-1.97l5.12-9.31Z"/><g><path class="cls-9" d="m140.85,42.52s3.83,24.81,3.72,38.25h2.89s-.62-25.95,3.51-38.25c0,0-6,2.38-10.13,0Z"/><circle class="cls-9" cx="146.16" cy="81.47" r="3.62"/><path class="cls-9" d="m139.32,41.09c2.07,1.04,7.23,3.02,12.65.25.61-.31.87-1.04.61-1.67l-5.34-12.73c-.23-.54-.97-.58-1.25-.07l-7.12,12.78c-.29.52-.08,1.17.45,1.44Z"/></g></g><path class="cls-9" d="m107.87,73.33s10.54-31.84,32.98-30.81"/><path class="cls-9" d="m150.98,42.52s26.57,4.14,33.6,31.01"/></g><g><path class="cls-8" d="m118.73,104.97s2.43,5.27,12.28,3.1c1.01-.32,2.03-.65,3.08-.82,1.01-.16,1.96.12,2.95.12-.26-.45-.48-.96-.78-1.39-.51-.7-1.05-1.38-1.65-2-1.29-1.36-2.93-2.64-4.84-2.89,0,0-6.44-.54-10.78,1.63"/><path class="cls-8" d="m173.02,104.76s-2.43,5.27-12.28,3.1c-1.01-.32-2.03-.65-3.08-.82-1.01-.16-1.96.12-2.95.12.26-.45.48-.96.78-1.39.51-.7,1.05-1.38,1.65-2,1.29-1.36,2.93-2.64,4.84-2.89,0,0,6.44-.54,10.78,1.63"/></g><path class="cls-8" d="m138.27,121.3c-.55,1-1.02,2.14-1.15,3.28-.12,1.17.35,2.69,1.55,3.14,1.57.58,2.91-1.31,4.46-.73.83.31,4.03.93,5.17.1s1.14-.52,2.48,0,3.2.41,3.62-2.17c0,0-.21-1.86-2.07-3.72"/><g><path class="cls-8" d="m135.89,143.67s9.38,9.23,19.77.39"/><path class="cls-8" d="m132.25,139.49s2.09.7,4.42-.54c1.43-.76,2.9-1.5,4.47-1.92.8-.22,1.66-.38,2.49-.3.39.04.78.12,1.13.29.28.14.68.64.94.7.38.08,1.03-.3,1.39-.41.74-.22,1.5-.39,2.26-.47,1.66-.19,3.53,0,4.76,1.26,2.71,2.79,6.28.78,6.28.78"/></g><path class="cls-8" d="m87.4,51.98s6.67,22.43,16.44,32.93"/><path class="cls-8" d="m88.83,89.32s9.33,13.68,15.43,19.37"/><path class="cls-8" d="m94.27,121.96s6.44,5.78,14.65,12.13"/><line class="cls-8" x1="101.67" y1="157.38" x2="114.08" y2="148.59"/><path class="cls-8" d="m116.92,95.28s18.99,0,20.74,5.24"/><path class="cls-8" d="m153.62,100.17s13.63-6.17,20.04-4.43"/></g><path class="cls-1" d="m137.33,158.07s10.66-4.02,14.85-.17"/><path class="cls-3" d="m84.76,203.3s69.12,32.5,113.16-4.89"/><path class="cls-3" d="m76.51,212.38s75.26,39.84,130.72-5.83"/><circle class="cls-1" cx="144.69" cy="222.12" r="22.6"/><line class="cls-1" x1="160.05" y1="206.79" x2="129.41" y2="237.43"/><line class="cls-1" x1="129.41" y1="206.79" x2="160.05" y2="237.43"/><rect class="cls-1" x="128.77" y="206.28" width="31.72" height="31.72" rx="1.25" ry="1.25" transform="translate(-114.72 167.33) rotate(-45)"/><g><polyline class="cls-2" points="138.68 205.63 138.68 216.11 134.48 216.11 134.48 222.05 154.76 222.05 154.76 227.41 150.33 227.41 150.33 239"/><polyline class="cls-2" points="128.3 228.23 138.8 228.23 138.8 232.89 144.62 232.89 144.62 212.85 150.56 212.85 150.56 217.39 162.38 217.39"/></g><path class="cls-10" d="m141.21,39.95s4.09,3.19,9.86.49c.17-.08.25-.28.18-.45l-3.88-10.13"/><path class="cls-10" d="m148.66,45.28s-3.2,14.89-2.27,20.99"/><path class="cls-10" d="m160.7,78.46l19.31-.93s1.65-.05,3.23-3.7"/><path class="cls-10" d="m147.52,169.96s28.84-7.91,33.65-33.03"/><path class="cls-10" d="m89.29,92.34s8.14,12.02,13.88,17.14c0,0,1.86,16.98,3.8,21.09"/><path class="cls-10" d="m151.48,121.73s2.75,2.48,1.32,4.19"/><path class="cls-4" d="m157.6,179.06s17.16,6.5,26.16,11.56c9,5.07,12.32,7.51,12.32,7.51"/><path class="cls-4" d="m198.17,200.06s6.64,5.59,7.34,6.2"/><path class="cls-4" d="m207.44,208.45s3.41,3.15,4.46,6.47,2.88,9.61,9.79,11.27"/><path class="cls-4" d="m79.49,211.98s25.48,11.31,41.35,13.3c.18.02.32-.13.29-.31-.2-1.24-.76-5.52.53-8.68"/><path class="cls-10" d="m204.59,88.91s2.89,2.95-1.55,7.5c0,0-1.58,1.27-.78,2.95s1.86,2.58-.08,5.87c0,0-1.24.8-.47,2.38s1.89,2.04-.13,4.76"/><path class="cls-4" d="m200.01,159.61s21.32,5.77,20.8,24.12"/><path class="cls-4" d="m62.48,200.76s7.08-2.97,10.05-12.93"/><polyline class="cls-4" points="138.19 234.49 146.32 234.49 146.32 223.44 153.61 223.44"/><polyline class="cls-4" points="139.95 207.02 139.95 217.51 135.93 217.51 135.93 220.66 143.04 220.66"/><polyline class="cls-4" points="152.08 212.51 152.08 215.92 157.85 215.92"/></g></g></g></svg>