<?xml version="1.0" encoding="UTF-8"?><svg id="Layer_2" xmlns="http://www.w3.org/2000/svg" viewBox="0 0 886.51 42.33"><defs><style>.cls-1{fill:#f0891e;}</style></defs><g id="Layer_1-2"><g><g><rect class="cls-1" x="6.83" y="19.57" width="871.71" height="3.2"/><g><path class="cls-1" d="m448.76,9.29l-6.07-9.29-6.07,9.29c-1.28,1.96-1.03,4.57.59,6.24l5.48,5.64,5.48-5.64c1.62-1.67,1.87-4.28.59-6.24Z"/><path class="cls-1" d="m436.62,33.05l6.07,9.29,6.07-9.29c1.28-1.96,1.03-4.57-.59-6.24l-5.48-5.64-5.48,5.64c-1.62,1.67-1.87,4.28-.59,6.24Z"/><path class="cls-1" d="m420.81,11.12l-8.66,8.91-4.5-4.64c-1.03-1.06-2.47-.93-3.38.32-1.65,2.26-.07,5.46,2.7,5.46-2.77,0-4.36,3.21-2.7,5.46h0c.91,1.24,2.36,1.38,3.38.32l4.5-4.64,8.66,8.91c2.22,2.29,5.74,2.53,8.25.58l13.64-10.62-13.64-10.62c-2.5-1.95-6.02-1.7-8.25.58Z"/><path class="cls-1" d="m478.43,21.17c2.97,0,4.47-3.63,2.39-5.78-1.03-1.06-2.47-.93-3.38.32l-3.62,4.93-9.25-9.51c-2.22-2.28-5.74-2.53-8.25-.58l-13.64,10.62,13.64,10.62c2.5,1.95,6.02,1.7,8.25-.58l9.25-9.51,3.62,4.93c.91,1.24,2.36,1.38,3.38.32,2.08-2.15.58-5.78-2.39-5.78Z"/></g><g><path class="cls-1" d="m557.35,15.34l-2.98-4.56-2.98,4.56c-.63.96-.51,2.24.29,3.06l2.69,2.77,2.69-2.77c.8-.82.92-2.1.29-3.06Z"/><path class="cls-1" d="m551.39,27l2.98,4.56,2.98-4.56c.63-.96.51-2.24-.29-3.06l-2.69-2.77-2.69,2.77c-.8.82-.92,2.1-.29,3.06Z"/><path class="cls-1" d="m565.11,16.24c-1.09-1.12-2.82-1.24-4.05-.29l-6.69,5.21,6.69,5.21c1.23.96,2.96.84,4.05-.29l4.79-4.93-4.79-4.93Z"/><path class="cls-1" d="m543.64,16.24l-4.79,4.93,4.79,4.93c1.09,1.12,2.82,1.24,4.05.29l6.69-5.21-6.69-5.21c-1.23-.96-2.96-.84-4.05.29Z"/><path class="cls-1" d="m333.98,15.34l-2.98-4.56-2.98,4.56c-.63.96-.51,2.24.29,3.06l2.69,2.77,2.69-2.77c.8-.82.92-2.1.29-3.06Z"/><path class="cls-1" d="m328.02,27l2.98,4.56,2.98-4.56c.63-.96.51-2.24-.29-3.06l-2.69-2.77-2.69,2.77c-.8.82-.92,2.1-.29,3.06Z"/><path class="cls-1" d="m337.69,15.95l-6.69,5.21,6.69,5.21c1.23.96,2.96.84,4.05-.29l4.79-4.93-4.79-4.93c-1.09-1.12-2.82-1.24-4.05-.29Z"/><path class="cls-1" d="m320.27,16.24l-4.79,4.93,4.79,4.93c1.09,1.12,2.82,1.24,4.05.29l6.69-5.21-6.69-5.21c-1.23-.96-2.96-.84-4.05.29Z"/></g></g><g><path class="cls-1" d="m868.61,21.29l8.58-11.69c1.95-2.66,5.04-2.95,7.24-.68h0c4.45,4.6,1.24,12.37-5.11,12.37h-10.72Z"/><path class="cls-1" d="m868.61,21.29l8.58,11.69c1.95,2.66,5.04,2.95,7.24.68h0c4.45-4.6,1.24-12.37-5.11-12.37h-10.72Z"/></g><g><path class="cls-1" d="m17.89,21.23l-8.58-11.69c-1.95-2.66-5.04-2.95-7.24-.68h0c-4.45,4.6-1.24,12.37,5.11,12.37h10.72Z"/><path class="cls-1" d="m17.89,21.23l-8.58,11.69c-1.95,2.66-5.04,2.95-7.24.68h0c-4.45-4.6-1.24-12.37,5.11-12.37h10.72Z"/></g></g></g></svg>